<svg xmlns="http://www.w3.org/2000/svg" width="200" height="200" viewBox="0 0 200 200"><defs><style>.cls-1{fill:#ffba9b;}.cls-1,.cls-2,.cls-3,.cls-4{fill-rule:evenodd;}.cls-3{fill:#fff;}.cls-4{fill:#fa8d71;}</style></defs><g id="Layer_3" data-name="Layer 3"><path class="cls-1" d="M30.64,66.53A16.16,16.16,0,1,0,14.46,50.37,16.15,16.15,0,0,0,30.64,66.53Z"/><path class="cls-2" d="M30.64,35.62A14.76,14.76,0,1,0,45.38,50.37,14.75,14.75,0,0,0,30.64,35.62Zm0,32.32A17.58,17.58,0,1,1,48.21,50.37,17.58,17.58,0,0,1,30.64,67.94Z"/><path class="cls-3" d="M100,180.22A80.12,80.12,0,1,0,19.88,100.1,80.14,80.14,0,0,0,100,180.22Z"/><path class="cls-2" d="M100,21.4a78.71,78.71,0,1,0,78.71,78.7A78.79,78.79,0,0,0,100,21.4Zm0,160.23a81.53,81.53,0,1,1,81.54-81.53A81.61,81.61,0,0,1,100,181.63Z"/><path class="cls-1" d="M135.1,64.41c16.29-2,29.26-1.15,38,1.84,5,1.73,8.74,4.2,11,7.29A13.69,13.69,0,0,1,186.45,85c-.75,3.81-2.9,8-6.52,12.44,0-2.21-.24-4.45-.46-6.69a20.15,20.15,0,0,0,2.77-6.62,9.78,9.78,0,0,0-1.55-8c-1.79-2.37-4.81-4.32-9-5.76-8.15-2.8-20.43-3.53-36-1.66-21,2.52-43.88,9.29-63.95,18.18s-37.1,19.77-46.55,30.66c-3.94,4.48-6.16,8.55-6.91,12.09a9.63,9.63,0,0,0,1.58,8c1.79,2.38,4.82,4.34,9,5.76a41.36,41.36,0,0,0,4.57,1.26c1.15,1.73,2.39,3.39,3.66,5a50.44,50.44,0,0,1-9.63-2.18c-5-1.72-8.74-4.18-11-7.29A14,14,0,0,1,14,128.74c.88-4.26,3.45-9,7.87-14C31.8,103.33,49.45,92,70,82.92S113.71,67,135.1,64.41Z"/><path class="cls-2" d="M135.25,65.81c-20.54,2.48-43.56,9-64.74,18.41S32.43,104.78,23,115.63c-4.17,4.77-6.71,9.27-7.55,13.4a12.53,12.53,0,0,0,2.11,10.34c2.14,2.88,5.59,5.16,10.38,6.79a44.36,44.36,0,0,0,5.88,1.54c-.45-.58-.84-1.18-1.24-1.78a42.87,42.87,0,0,1-4.18-1.19c-4.44-1.52-7.7-3.63-9.66-6.25a11,11,0,0,1-1.82-9.15c.79-3.88,3.23-8.15,7.19-12.73,9.31-10.69,26-21.7,47-31S115,69.74,135.46,67.29c15.33-1.86,28-1.25,36.68,1.72,4.45,1.52,7.71,3.63,9.66,6.26a11,11,0,0,1,1.83,9.15,21.72,21.72,0,0,1-2.74,6.66c.12.8.19,1.61.24,2.41a25.29,25.29,0,0,0,4-8.76A12.53,12.53,0,0,0,183,74.38c-2.13-2.88-5.6-5.17-10.37-6.79-8.86-3-21.78-3.66-37.37-1.78Zm-98.2,85.27a.9.9,0,0,1-.21,0A51.61,51.61,0,0,1,27,148.82C21.7,147,17.77,144.38,15.27,141a15,15,0,0,1-2.59-12.59c.94-4.59,3.7-9.53,8.14-14.67,9.74-11.16,27-22.58,48.57-32.14,21.43-9.5,44.72-16.12,65.54-18.63h0c16-1.93,29.34-1.26,38.61,1.91,5.28,1.83,9.22,4.44,11.72,7.78a15.07,15.07,0,0,1,2.58,12.59c-.83,4.11-3.14,8.5-6.79,13a1.41,1.41,0,0,1-2.51-.84c-.08-2.09-.24-4.31-.48-6.58a1.43,1.43,0,0,1,.21-.88,20.31,20.31,0,0,0,2.62-6.17A8.46,8.46,0,0,0,179.54,77c-1.6-2.16-4.41-3.94-8.31-5.28-8.26-2.83-20.51-3.39-35.41-1.59-20.15,2.43-42.73,8.85-63.56,18.07-20.67,9.16-37,19.92-46.07,30.31-3.65,4.19-5.85,8-6.55,11.44A8.19,8.19,0,0,0,21,136.8c1.58,2.16,4.36,3.93,8.3,5.27a35.87,35.87,0,0,0,4.38,1.21,1.51,1.51,0,0,1,.87.59c1.15,1.69,2.35,3.34,3.62,4.92a1.43,1.43,0,0,1,.12,1.57A1.39,1.39,0,0,1,37.05,151.08Z"/><path class="cls-1" d="M98.17,15.61C102.1,9,106,4.74,109.63,2.87a9,9,0,0,1,8.66-.25c2.42,1.27,4.56,3.78,6.31,7.43A58.09,58.09,0,0,1,129,25.39c-1.55-.6-3.11-1.14-4.65-1.64a51.15,51.15,0,0,0-3.57-11.82c-1.36-2.8-2.88-4.64-4.46-5.48a4.9,4.9,0,0,0-4.7.25c-2.93,1.52-6.23,5.17-9.77,11.1C94,30.89,87,52,81.83,75.64s-8.34,49.73-8.34,72.61c0,18.9,2.15,32.52,5.77,40,1.35,2.79,2.86,4.64,4.44,5.48a4.9,4.9,0,0,0,4.7-.25c2.93-1.51,6.19-5.17,9.77-11.11.4-.69.84-1.42,1.24-2.18H100c1.49,0,2.92,0,4.34-.12-.79,1.58-1.63,3.09-2.5,4.49-3.93,6.68-7.83,10.87-11.48,12.75a8.94,8.94,0,0,1-8.63.25c-2.43-1.28-4.57-3.78-6.32-7.44-3.9-8.07-6.24-22.35-6.24-41.9,0-23.18,3.25-49.57,8.47-73.52S90.11,29.13,98.17,15.61Z"/><path class="cls-2" d="M98.17,15.61ZM114.31,3a8.65,8.65,0,0,0-4,1.09c-3.5,1.81-7.2,5.92-10.94,12.21h0C91.66,29.28,84.42,50.13,79,75s-8.43,50.9-8.43,73.22c0,18.51,2.15,33.17,6.08,41.29,1.63,3.38,3.54,5.67,5.73,6.79a7.45,7.45,0,0,0,7.3-.23c3.5-1.81,7.2-5.92,10.94-12.23.43-.73.88-1.48,1.31-2.26l-1.72,0c-.27.51-.58,1-.87,1.49-3.61,6-7.07,10-10.33,11.64a6.13,6.13,0,0,1-6,.24c-1.88-1-3.58-3-5.1-6.11-3.85-8-5.88-22.08-5.88-40.64,0-22.25,2.94-48.14,8.34-72.91s12.61-45.48,20.2-58.25c3.57-6,7.07-9.95,10.33-11.64a6.18,6.18,0,0,1,6-.25c1.87,1,3.59,3,5.09,6.11a51.55,51.55,0,0,1,3.54,11.36c.52.18,1.08.36,1.58.55a52,52,0,0,0-3.81-12.56c-1.62-3.37-3.53-5.66-5.72-6.79a7,7,0,0,0-3.3-.84ZM85.69,200a9.69,9.69,0,0,1-4.6-1.16c-2.75-1.41-5.06-4.14-7-8.08-4.17-8.61-6.36-23.31-6.36-42.51,0-22.52,3-48.74,8.47-73.82S89.07,28.1,96.94,14.89h0C101,8.15,105,3.68,109,1.62a10.29,10.29,0,0,1,10-.25c2.74,1.42,5,4.14,6.94,8.07a58.47,58.47,0,0,1,4.5,15.72,1.43,1.43,0,0,1-1.91,1.55c-1.51-.59-3-1.13-4.56-1.62a1.39,1.39,0,0,1-1-1.08,48.34,48.34,0,0,0-3.46-11.46c-1.19-2.5-2.55-4.16-3.86-4.86a3.54,3.54,0,0,0-3.38.25c-2.74,1.43-5.92,5.09-9.18,10.58C95.6,31.06,88.55,51.43,83.22,75.94s-8.34,50.27-8.34,72.31c0,17.88,2,31.89,5.64,39.42,1.2,2.48,2.56,4.16,3.86,4.84a3.49,3.49,0,0,0,3.38-.25c2.7-1.41,5.92-5.08,9.18-10.58.4-.68.84-1.4,1.23-2.14a1.39,1.39,0,0,1,1.24-.72H100c1.44,0,2.88,0,4.27-.12a1.47,1.47,0,0,1,1.27.65,1.44,1.44,0,0,1,.07,1.41c-.83,1.6-1.7,3.13-2.54,4.55-4,6.76-8.06,11.23-12,13.28A11.68,11.68,0,0,1,85.69,200Z"/><path class="cls-4" d="M98.93,28.66c13-7.5,25.24-11.07,35.81-11.07A38,38,0,0,1,153,21.9a32.89,32.89,0,0,1,12.8,12.63c3.84,6.67,6,15.2,6,25.4,0,1.4-.05,2.81-.12,4.23a84.45,84.45,0,0,0-4.3-7.46c-.4-8-2.22-14.72-5.32-20a28,28,0,0,0-11.13-11,33.52,33.52,0,0,0-16.14-3.8c-9.86,0-21.35,3.38-33.67,10.49h0C82.2,43.3,65,60.88,52.62,80.47s-20,41-20,59.8c0,9.44,1.9,17.25,5.37,23.27h0a28.45,28.45,0,0,0,11.13,11,33.55,33.55,0,0,0,16.14,3.78A51,51,0,0,0,77,176.87a85.1,85.1,0,0,0,8.34,2,60.34,60.34,0,0,1-20.07,3.73,37.83,37.83,0,0,1-18.2-4.32,32.57,32.57,0,0,1-12.81-12.6h0c-3.84-6.69-6-15.22-6-25.42,0-19.62,7.9-41.93,20.7-62.12s30.44-38.22,50-49.49Z"/><path class="cls-2" d="M98.93,28.66h0ZM35.54,165.08a30.93,30.93,0,0,0,12.19,12c8.63,4.7,19.83,5.4,32.12,2.06-.95-.25-1.95-.53-2.9-.81-10.89,2.49-20.79,1.61-28.5-2.57a30,30,0,0,1-11.69-11.51c-3.69-6.42-5.6-14.48-5.6-24,0-18.45,7.19-40,20.27-60.56s30.45-37.87,48.94-48.55c19.43-11.21,38.35-13.67,51.19-6.7A30,30,0,0,1,163.24,36c3.21,5.56,5,12.37,5.48,20.27.56.86,1.08,1.73,1.59,2.6-.12-9.25-2.06-17.19-5.8-23.6a30.86,30.86,0,0,0-12.24-12.09c-13.28-7.21-32.68-4.78-52.62,6.73a.73.73,0,0,0-.12.05c-18.64,10.79-36.17,28.18-49.37,49s-20.47,42.64-20.47,61.36c0,9.73,1.95,18,5.8,24.71a.1.1,0,0,0,0,.1ZM65.26,184a39.25,39.25,0,0,1-18.88-4.48A34,34,0,0,1,33,166.39s0-.06,0-.09c-4.07-7.08-6.13-15.84-6.13-26,0-19.25,7.43-41.58,20.9-62.87s31.37-38.95,50.44-50l.08,0c20.83-12,41.18-14.41,55.33-6.73A34,34,0,0,1,167,33.82c4.1,7.11,6.16,15.9,6.16,26.11,0,1.43,0,2.86-.12,4.31a1.41,1.41,0,0,1-2.66.56,76.36,76.36,0,0,0-4.22-7.35,1.36,1.36,0,0,1-.2-.69c-.4-7.61-2.1-14.13-5.13-19.39a27,27,0,0,0-10.6-10.44c-11.94-6.48-29.9-4-48.42,6.68C83.66,44.06,66.65,61,53.82,81.22S34,122.35,34,140.27c0,9,1.75,16.57,5.21,22.57a26.75,26.75,0,0,0,10.62,10.43c7.15,3.89,16.48,4.66,26.86,2.23a1.26,1.26,0,0,1,.72,0,74.67,74.67,0,0,0,8.23,2,1.41,1.41,0,0,1,1.15,1.27,1.46,1.46,0,0,1-1,1.45A62.22,62.22,0,0,1,65.26,184Z"/><path class="cls-1" d="M155.09,42.57A16.52,16.52,0,1,0,138.6,26.05,16.53,16.53,0,0,0,155.09,42.57Z"/><path class="cls-2" d="M155.09,10.94a15.11,15.11,0,1,0,15.1,15.11,15.13,15.13,0,0,0-15.1-15.11Zm0,33A17.93,17.93,0,1,1,173,26.05,18,18,0,0,1,155.09,44Z"/><path class="cls-4" d="M101.07,28.66c-13-7.5-25.23-11.07-35.81-11.07a37.94,37.94,0,0,0-18.2,4.31A32.65,32.65,0,0,0,34.25,34.53l0,.07a16,16,0,0,1,4.1,1.54A28.15,28.15,0,0,1,49.12,25.7a33.55,33.55,0,0,1,16.14-3.8c9.86,0,21.35,3.38,33.67,10.49h0c18.88,10.91,36,28.49,48.45,48.08s20,41,20,59.8c0,9.44-1.9,17.25-5.4,23.27h0a28.51,28.51,0,0,1-11.13,11,33.52,33.52,0,0,1-16.14,3.78A50.87,50.87,0,0,1,123,176.87a83.18,83.18,0,0,1-8.38,2,60.78,60.78,0,0,0,20.1,3.73A37.87,37.87,0,0,0,153,178.3a32.61,32.61,0,0,0,12.8-12.6h0c3.84-6.69,6-15.22,6-25.42,0-19.62-7.91-41.93-20.72-62.12s-30.44-38.22-50-49.49Z"/><path class="cls-2" d="M120.11,179.13c12.33,3.35,23.5,2.64,32.16-2.06a31,31,0,0,0,12.21-12s0,0,0-.08c3.86-6.67,5.8-15,5.8-24.71,0-18.71-7.27-40.52-20.46-61.36s-30.73-38.19-49.41-49c0,0,0,0-.07-.05C80.44,18.37,61,15.92,47.73,23.15a31.1,31.1,0,0,0-11.37,10.6c.48.17,1,.35,1.44.55a29.2,29.2,0,0,1,10.65-9.84c12.83-7,31.76-4.51,51.2,6.7,18.47,10.68,35.84,27.92,48.93,48.55s20.27,42.13,20.27,60.56c0,9.48-1.92,17.55-5.61,24a30,30,0,0,1-11.68,11.51c-7.71,4.18-17.61,5.07-28.5,2.57-1,.28-2,.56-3,.81Zm14.63,4.9a62.36,62.36,0,0,1-20.55-3.81,1.46,1.46,0,0,1-1-1.44,1.43,1.43,0,0,1,1.17-1.28,75.13,75.13,0,0,0,8.22-2,1.32,1.32,0,0,1,.71,0c10.38,2.43,19.71,1.66,26.88-2.23a26.83,26.83,0,0,0,10.6-10.43c3.46-6,5.21-13.58,5.21-22.57,0-17.92-7-38.88-19.83-59.05s-29.89-37.16-48-47.61c-18.51-10.7-36.48-13.16-48.4-6.68A26.88,26.88,0,0,0,39.5,36.85a1.4,1.4,0,0,1-1.87.52A13.89,13.89,0,0,0,33.91,36a1.35,1.35,0,0,1-1-.8,1.29,1.29,0,0,1,0-1.25A33.83,33.83,0,0,1,46.38,20.67c14.19-7.68,34.51-5.26,55.33,6.72l.08.05c19.08,11,37,28.76,50.44,50s20.91,43.62,20.91,62.87c0,10.19-2.06,18.95-6.12,26,0,0,0,.05,0,.08a34.06,34.06,0,0,1-13.36,13.16A39.25,39.25,0,0,1,134.74,184Z"/><path class="cls-4" d="M176.07,74.88a44.7,44.7,0,0,1,8,9.43h0a28.57,28.57,0,0,1,0,31.58v0c-4.29,6.93-11.53,13.42-21.75,18.89h0c-17.24,9.27-39.78,13.9-62.33,13.9s-45.06-4.63-62.36-13.9h0c-10.17-5.47-17.41-12-21.73-18.89a28.75,28.75,0,0,1,0-31.6h0a44.63,44.63,0,0,1,8-9.43,78.66,78.66,0,0,0-2.47,9.31c-.55.76-1.07,1.51-1.55,2.28h0a24.61,24.61,0,0,0,0,27.29C23.84,120.06,30.53,126,40,131.09h0c16.53,8.86,38.25,13.29,60,13.29s43.5-4.43,60-13.29h0c9.47-5.09,16.14-11,20.07-17.34h0a24.74,24.74,0,0,0,0-27.28h0c-.48-.77-1-1.52-1.55-2.28A79,79,0,0,0,176.07,74.88Z"/><path class="cls-2" d="M184.07,115.91h0ZM17.17,85s0,.06-.08.08a27.28,27.28,0,0,0,0,30.11c4.33,7,11.48,13.17,21.23,18.41,16.49,8.85,38.4,13.73,61.67,13.73s45.21-4.88,61.7-13.73c9.7-5.23,16.82-11.39,21.14-18.32a.1.1,0,0,0,0-.1,27.13,27.13,0,0,0,0-30.11A37.49,37.49,0,0,0,179,79.83c.31,1.25.58,2.52.86,3.78.52.69,1,1.4,1.44,2.1,0,0,0,.08,0,.11a26.74,26.74,0,0,1,4.3,14.28,27.16,27.16,0,0,1-4.33,14.39c-4.22,6.76-11.13,12.75-20.6,17.83l-.11.05C144.4,141,122.89,145.8,100,145.8S55.56,141,39.38,132.37c0,0,0,0-.07-.05-9.46-5.08-16.38-11.08-20.6-17.83a26.11,26.11,0,0,1,0-28.77c.45-.71.93-1.41,1.44-2.11.24-1.26.55-2.53.88-3.79A37.57,37.57,0,0,0,17.17,85ZM100,150.11c-23.72,0-46.1-5-63-14.06-10.21-5.48-17.69-12-22.3-19.4a29.95,29.95,0,0,1,0-33s0-.06,0-.08A46.71,46.71,0,0,1,23,73.83a1.4,1.4,0,0,1,1.7-.13,1.46,1.46,0,0,1,.56,1.63,73.31,73.31,0,0,0-2.43,9.14,1.47,1.47,0,0,1-.24.56c-.55.72-1,1.45-1.51,2.18a23.28,23.28,0,0,0,0,25.8C25,119.31,31.56,125,40.54,129.79l.12.05C56.44,138.31,77.51,143,100,143s43.58-4.66,59.36-13.13a.34.34,0,0,1,.12-.06c9-4.83,15.5-10.47,19.43-16.77a23.28,23.28,0,0,0,0-25.8s-.08-.07-.08-.11c-.43-.69-.91-1.39-1.43-2.08a1.49,1.49,0,0,1-.24-.55,75,75,0,0,0-2.42-9.14,1.44,1.44,0,0,1,.55-1.62,1.41,1.41,0,0,1,1.72.13,45.87,45.87,0,0,1,8.26,9.73,30.79,30.79,0,0,1,5,16.53,31.25,31.25,0,0,1-4.92,16.45s0,.06,0,.1c-4.61,7.4-12.12,13.92-22.3,19.4C146.11,145.12,123.73,150.11,100,150.11Z"/><path class="cls-1" d="M116.61,163.9a18.31,18.31,0,1,0-18.32-18.31A18.3,18.3,0,0,0,116.61,163.9Z"/><path class="cls-2" d="M116.61,128.69a16.9,16.9,0,1,0,16.9,16.9,16.92,16.92,0,0,0-16.9-16.9Zm0,36.61a19.72,19.72,0,1,1,19.72-19.71A19.72,19.72,0,0,1,116.61,165.3Z"/></g></svg>