<svg xmlns="http://www.w3.org/2000/svg" width="200" height="200" viewBox="0 0 200 200"><defs><style>.cls-1{fill:#f4ffc8;}.cls-1,.cls-2,.cls-3,.cls-4{fill-rule:evenodd;}.cls-3{fill:#b2ca80;}.cls-4{fill:#fff;}</style></defs><g id="Layer_3" data-name="Layer 3"><polygon class="cls-1" points="99.94 186.36 39.38 151.35 99.94 116.35 160.61 151.35 99.94 186.36"/><path class="cls-2" d="M157.75,151.35,99.94,118,42.25,151.35l57.69,33.31,57.81-33.31ZM99.32,187.64l-60.68-35a1.38,1.38,0,0,1-.75-1.28,1.46,1.46,0,0,1,.75-1.28l60.68-35a1.14,1.14,0,0,1,1.36,0l60.68,35a1.46,1.46,0,0,1,.75,1.28,1.38,1.38,0,0,1-.75,1.28l-60.68,35c-.12.13-.37.16-.74.16A.88.88,0,0,1,99.32,187.64Z"/><polygon class="cls-3" points="160.61 163.51 99.94 198.5 99.94 186.36 160.61 151.35 160.61 163.51"/><path class="cls-2" d="M159.12,162.67v-8.76l-57.69,33.27V196l57.69-33.32ZM99.32,199.8a1.45,1.45,0,0,1-.75-1.3V186.36a1.45,1.45,0,0,1,.75-1.29l60.55-35a1.57,1.57,0,0,1,1.49,0,1.46,1.46,0,0,1,.75,1.28v12.16a1.37,1.37,0,0,1-.75,1.27l-60.68,35a1.13,1.13,0,0,1-.74.2A1,1,0,0,1,99.32,199.8Z"/><polygon class="cls-4" points="39.38 163.51 99.94 198.5 99.94 186.36 39.38 151.35 39.38 163.51"/><path class="cls-2" d="M39.38,163.51Zm59.19,23.67L40.88,153.91v8.76L98.57,196v-8.81Zm.75,12.62-60.68-35a1.37,1.37,0,0,1-.75-1.27V151.35a1.46,1.46,0,0,1,.75-1.28,1.57,1.57,0,0,1,1.49,0l60.55,35a1.43,1.43,0,0,1,.75,1.29V198.5a1.43,1.43,0,0,1-.75,1.3,1.13,1.13,0,0,1-.74.2A1,1,0,0,1,99.32,199.8Z"/><path class="cls-4" d="M99.94,159a18.84,18.84,0,0,1-9.35-2.26c-2.62-1.49-3.86-3.43-3.86-5.42s1.24-3.93,3.86-5.41a21,21,0,0,1,18.82,0c2.62,1.48,3.86,3.46,3.86,5.41s-1.24,3.93-3.86,5.42A19,19,0,0,1,99.94,159Z"/><path class="cls-2" d="M99.94,145.15a17.31,17.31,0,0,0-8.6,2.07c-2,1.16-3.11,2.64-3.11,4.13s1.12,3,3.11,4.17c4.61,2.65,12.71,2.65,17.32,0,2-1.19,3.11-2.68,3.11-4.17s-1.12-3-3.11-4.13a17.46,17.46,0,0,0-8.72-2.07Zm-10.1,12.9c-3-1.74-4.6-4.1-4.6-6.7s1.62-5,4.6-6.69c5.49-3.14,14.83-3.14,20.32,0,3,1.73,4.6,4.08,4.6,6.69s-1.62,5-4.6,6.7a22.45,22.45,0,0,1-20.32,0Z"/><polygon class="cls-3" points="90.59 156.68 90.34 156.51 90.09 156.39 89.97 156.23 89.72 156.11 89.47 155.94 89.35 155.77 89.1 155.65 88.97 155.48 88.72 155.32 88.6 155.15 88.48 154.99 88.22 154.82 88.1 154.66 87.97 154.5 87.85 154.33 87.73 154.12 87.6 153.95 87.48 153.79 87.36 153.63 87.23 153.41 87.23 153.25 87.1 153.09 86.98 152.88 86.98 152.72 86.86 152.54 86.86 152.34 86.86 152.18 86.73 151.97 86.73 151.81 86.73 151.59 86.73 82.7 86.73 82.91 86.73 83.07 86.73 83.27 86.86 83.43 86.86 83.64 86.86 83.82 86.98 83.98 86.98 84.18 87.1 84.35 87.23 84.55 87.23 84.73 87.36 84.89 87.48 85.05 87.6 85.26 87.73 85.43 87.85 85.59 87.97 85.75 88.1 85.92 88.22 86.08 88.48 86.25 88.6 86.42 88.72 86.58 88.97 86.75 89.1 86.91 89.35 87.08 89.47 87.19 89.72 87.37 89.97 87.53 90.09 87.66 90.34 87.81 90.59 87.94 90.84 88.11 91.09 88.24 91.34 88.35 91.59 88.49 91.84 88.6 92.09 88.72 92.46 88.81 92.71 88.94 92.96 89.03 93.21 89.14 93.58 89.23 93.83 89.31 94.08 89.39 94.45 89.47 94.7 89.56 94.96 89.64 95.33 89.72 95.58 89.76 95.95 89.85 96.2 89.88 96.57 89.94 96.83 89.97 97.2 90.01 97.45 90.05 97.82 90.1 98.07 90.13 98.44 90.13 98.69 90.18 99.69 90.18 99.94 90.22 100.31 90.18 101.31 90.18 101.56 90.13 101.93 90.13 102.18 90.1 102.55 90.05 102.8 90.01 103.17 89.97 103.42 89.94 103.8 89.88 104.05 89.85 104.42 89.76 104.67 89.72 105.04 89.64 105.3 89.56 105.67 89.47 105.92 89.39 106.17 89.31 106.54 89.23 106.79 89.14 107.04 89.03 107.29 88.94 107.54 88.81 107.79 88.72 108.16 88.6 108.41 88.49 108.66 88.35 108.91 88.24 109.16 88.11 109.41 87.94 109.66 87.81 109.91 87.66 110.03 87.53 110.28 87.37 110.53 87.19 110.78 87.08 110.9 86.91 111.15 86.75 111.28 86.58 111.4 86.42 111.65 86.25 111.78 86.08 111.9 85.92 112.03 85.75 112.15 85.59 112.27 85.43 112.4 85.26 112.52 85.05 112.64 84.89 112.77 84.73 112.9 84.55 112.9 84.35 113.02 84.18 113.02 83.98 113.14 83.82 113.14 83.64 113.14 83.43 113.27 83.27 113.27 83.07 113.27 82.91 113.27 82.7 113.27 151.43 113.27 151.59 113.27 151.81 113.27 151.97 113.14 152.18 113.14 152.34 113.14 152.54 113.02 152.72 113.02 152.88 112.9 153.09 112.9 153.25 112.77 153.41 112.64 153.63 112.52 153.79 112.4 153.95 112.27 154.12 112.15 154.33 112.03 154.5 111.9 154.66 111.78 154.82 111.65 154.99 111.4 155.15 111.28 155.32 111.15 155.48 110.9 155.65 110.78 155.77 110.53 155.94 110.28 156.11 110.03 156.23 109.91 156.39 109.66 156.51 109.41 156.68 109.16 156.81 108.91 156.93 108.66 157.05 108.41 157.22 108.16 157.3 107.79 157.43 107.54 157.55 107.29 157.68 107.04 157.76 106.79 157.84 106.54 157.96 106.17 158.05 105.92 158.13 105.67 158.21 105.3 158.3 105.04 158.38 104.67 158.41 104.42 158.5 104.05 158.55 103.8 158.58 103.42 158.66 103.17 158.71 102.8 158.75 102.55 158.8 102.18 158.83 101.93 158.83 101.56 158.87 101.31 158.87 100.94 158.91 99.06 158.91 98.69 158.87 98.44 158.87 98.07 158.83 97.82 158.83 97.45 158.8 97.2 158.75 96.83 158.71 96.57 158.66 96.2 158.58 95.95 158.55 95.58 158.5 95.33 158.41 94.96 158.34 94.7 158.3 94.45 158.21 94.08 158.13 93.83 158.05 93.58 157.96 93.21 157.84 92.96 157.76 92.71 157.68 92.46 157.55 92.09 157.43 91.84 157.3 91.59 157.22 91.34 157.05 91.09 156.93 90.84 156.81 90.59 156.68"/><path class="cls-2" d="M90.59,156.68Zm9.35.79.37,1.44.25-1.44.37,1.44.26-1.48.37,1.44.25-1.48.37,1.44.12-1.48.5,1.4.13-1.49.49,1.4.13-1.48.5,1.37.12-1.5.5,1.36v-1.48l.62,1.37-.12-1.49.75,1.31-.13-1.48.75,1.32-.25-1.48.75,1.28-.25-1.45.75,1.24-.25-1.44.87,1.19-.37-1.4.87,1.15-.5-1.41,1,1.17-.5-1.42,1,1.13-.63-1.37,1,1.08-.62-1.32,1.12,1-.75-1.28,1.12,1-.74-1.28,1.12,1-.87-1.2,1.24.87-.87-1.29,1.12,1-.87-1.24,1.12.91-.87-1.29,1.36.59-1.12-1,1.38.62-1.25-1,1.49.29-1.37-.73,1.37.37-1.37-.75V88.07c-.12.08-.37.28-.37.33a3.59,3.59,0,0,0-.5.33,4.68,4.68,0,0,0-.49.33l-.51.29c-.12,0-.62.29-.62.29a1.79,1.79,0,0,1-.62.3l-.5.24a4,4,0,0,0-.62.24l-.63.21-.62.16c0,.06-.62.17-.62.22l-.63.12-.62.13-.75.12-.62.08-.62.08-.75.09h-.62l-.75,0h-.62l-.75,0h-.62l-.62-.09a5.06,5.06,0,0,1-.75-.08l-.63-.08a4.52,4.52,0,0,1-.62-.12s-.62-.13-.74-.13L94.33,91l-.62-.16c0-.06-.62-.22-.62-.22l-.63-.21a4,4,0,0,1-.62-.24,3.8,3.8,0,0,1-.5-.24,3.21,3.21,0,0,1-.62-.26,1.76,1.76,0,0,0-.63-.29,1.17,1.17,0,0,0-.49-.33,2.87,2.87,0,0,1-.5-.33s-.38-.33-.5-.33a2.75,2.75,0,0,1-.37-.33v63.52l-1.5.38h1.62l-1.49.57,1.49-.2-1.25.75,1.5-.37-1.25.91,1.5-.5-1.12,1,1.37-.58-1,1.12,1.37-.71-.87,1.2,1.12-.9L89,155.48l1-1-.62,1.27,1-1-.63,1.36,1-1.08-.63,1.36,1-1.11.25.11-.5,1.42.87-1.17-.37,1.41.87-1.19-.37,1.44.87-1.19-.25,1.44.75-1.28L93,157.76l.75-1.28L93.58,158l.63-1.32-.13,1.48.75-1.31-.13,1.49.63-1.37v1.48l.62-1.36v1.5l.5-1.41.12,1.52.5-1.4.13,1.49.5-1.45.12,1.53.37-1.44.25,1.48.38-1.44.24,1.48.38-1.48.25,1.48.25-1.44Zm0,2.93-.62,0h-.63l-.75-.05a4.36,4.36,0,0,0-.62-.07s-.62-.08-.75-.08l-.62-.09s-.25-.08-.25-.08-.74-.12-.74-.12l-.63-.16-.62-.18-.62-.2-.63-.21-.62-.21a4,4,0,0,0-.62-.25,3.14,3.14,0,0,0-.5-.28l-.63-.29L90,158a1.1,1.1,0,0,0-.37-.16l-.5-.33s-.38-.33-.5-.33a3.23,3.23,0,0,0-.37-.37l-.5-.38-.38-.37s-.37-.38-.37-.41-.25-.38-.25-.41-.37-.38-.37-.42-.25-.42-.25-.45-.25-.42-.25-.45l-.13-.43c-.12,0-.25-.45-.25-.48s-.12-.46-.12-.5V152c0-.08-.12-.49-.12-.58V82.7c0-.79.62-1.24,1.49-1.29a2.09,2.09,0,0,1,1.5,1.29V84l.25,0-.25.17v.25l.49-.08-.49.46V85l.74-.29-.74.57v.16l1.12-.37-.87,1.16,1.12-.86-.88,1.19,1.12-.94-.74,1.27,1.12-1-.75,1.28,1-1L90,87.53l.87-1.11-.49,1.4,1-1.16-.5,1.45.87-1.2-.37,1.44.87-1.19-.37,1.44.87-1.23-.25,1.44.75-1.23L93,89l.75-1.29-.13,1.49.63-1.32-.13,1.48.75-1.32-.13,1.49.63-1.37v1.53l.62-1.4v1.53l.5-1.41.12,1.5.5-1.41L97.2,90l.5-1.41.12,1.5.37-1.45.25,1.48.38-1.44.24,1.49.38-1.45.25,1.45.25-1.45.37,1.45.25-1.45.37,1.45.26-1.49.37,1.44.25-1.48.37,1.45.25-1.5L102.8,90l.13-1.48.49,1.41.13-1.5.5,1.41V88.32l.62,1.4V88.24l.62,1.32-.12-1.49.75,1.32-.13-1.48.75,1.32-.25-1.49L107,89l-.25-1.45.75,1.23-.25-1.44.87,1.23-.37-1.44.87,1.19-.5-1.39,1,1.15-.5-1.4,1,1.11L109,86.46l1,1.07-.62-1.35,1.12,1-.75-1.28,1.12,1-.74-1.24,1.12.91-.87-1.19,1.24.86-1-1.11,1.12.75L111,84.68l.74.62-.49-1,.49.2v-.37l-.25-.29.25.16v-.37l-.12-.11.12,0v-.9h.38l-.38-.09a1.49,1.49,0,0,1,1.62-1.36,1.45,1.45,0,0,1,1.37,1.45V152c0,.05-.12.46-.12.5s-.12.41-.12.46-.13.45-.13.48l-.25.43s-.25.45-.25.45-.25.42-.25.45a3.89,3.89,0,0,1-.25.42,5.06,5.06,0,0,1-.37.41s-.38.37-.38.41l-.37.37s-.37.38-.5.38l-.37.33s-.5.33-.5.37l-.49.33a3.16,3.16,0,0,1-.63.29,4.29,4.29,0,0,1-.5.29,5.65,5.65,0,0,1-.62.28l-.5.25a3.36,3.36,0,0,0-.62.21s-.63.21-.63.25l-.62.16-.62.18-.63.16-.62.12s-.37,0-.37.08-.63.09-.75.09l-.62.08-.62.07-.75.05h-.63l-.74,0Z"/><polygon class="cls-4" points="90.59 156.68 90.34 156.51 90.09 156.39 89.97 156.23 89.72 156.11 89.47 155.94 89.35 155.77 89.1 155.65 88.97 155.48 88.72 155.32 88.6 155.15 88.48 154.99 88.22 154.82 88.1 154.66 87.97 154.5 87.85 154.33 87.73 154.12 87.6 153.95 87.48 153.79 87.36 153.63 87.23 153.41 87.23 153.25 87.1 153.09 86.98 152.88 86.98 152.72 86.86 152.54 86.86 152.34 86.86 152.18 86.73 151.97 86.73 151.81 86.73 151.59 86.73 82.7 86.73 82.91 86.73 83.07 86.73 83.27 86.86 83.43 86.86 83.64 86.86 83.82 86.98 83.98 86.98 84.18 87.1 84.35 87.23 84.55 87.23 84.73 87.36 84.89 87.48 85.05 87.6 85.26 87.73 85.43 87.85 85.59 87.97 85.75 88.1 85.92 88.22 86.08 88.48 86.25 88.6 86.42 88.72 86.58 88.97 86.75 89.1 86.91 89.35 87.08 89.47 87.19 89.72 87.37 89.97 87.53 90.09 87.66 90.34 87.81 90.59 87.94 90.84 88.11 91.09 88.24 91.34 88.35 91.59 88.49 91.84 88.6 92.09 88.72 92.46 88.81 92.71 88.94 92.96 89.03 93.21 89.14 93.58 89.23 93.83 89.31 94.08 89.39 94.45 89.47 94.7 89.56 94.96 89.64 95.33 89.72 95.58 89.76 95.7 89.8 95.7 158.5 95.58 158.5 95.33 158.41 94.96 158.34 94.7 158.3 94.45 158.21 94.08 158.13 93.83 158.05 93.58 157.96 93.21 157.84 92.96 157.76 92.71 157.68 92.46 157.55 92.09 157.43 91.84 157.3 91.59 157.22 91.34 157.05 91.09 156.93 90.84 156.81 90.59 156.68"/><path class="cls-2" d="M94.33,157.05V91l-.62-.11c0-.06-.62-.22-.62-.22l-.63-.21a4,4,0,0,1-.62-.24,3.8,3.8,0,0,1-.5-.24,3.21,3.21,0,0,1-.62-.26,1.76,1.76,0,0,0-.63-.29,1.17,1.17,0,0,0-.49-.33,2.87,2.87,0,0,1-.5-.33s-.38-.33-.5-.33a2.75,2.75,0,0,1-.37-.33v63.52l-1.5.38h1.62l-1.49.57,1.49-.2-1.25.75,1.5-.37-1.25.91,1.5-.5-1.12,1,1.37-.58-1,1.12,1.37-.71-.87,1.2,1.12-.9L89,155.48l1-1-.62,1.27,1-1-.63,1.36,1-1.08-.63,1.36,1-1.11.25.11-.75,1.29,1-1.16-.75,1.29,1.12-1-.62,1.28L92.46,156l-.62,1.32L93,156.19l-.5,1.36,1-1.16-.5,1.37,1-1.21L93.58,158l.75-.91Zm0,.87-.25.2.25-.48v.28Zm1.12,2-.49-.08-.63-.16-.62-.18-.62-.2-.63-.21-.62-.21a4,4,0,0,0-.62-.25,3.14,3.14,0,0,0-.5-.28l-.63-.29L90,158a1.1,1.1,0,0,0-.37-.16l-.5-.33s-.38-.33-.5-.33a3.23,3.23,0,0,0-.37-.37l-.5-.38-.38-.37s-.37-.38-.37-.41-.25-.38-.25-.41-.37-.38-.37-.42-.25-.42-.25-.45-.25-.42-.25-.45l-.13-.43c-.12,0-.25-.45-.25-.48s-.12-.46-.12-.5V152c0-.08-.12-.49-.12-.58V82.7a1.44,1.44,0,0,1,1.49-1.37,1.75,1.75,0,0,1,1.5,1.45v.9h.25l-.25.09v.28l.37,0-.37.25v.37l.62-.21-.62.41v.21l.87-.25-.87,1v0l1.24-.63-1,1,1.24-.7-1,1L90,85.8l-.87,1.11,1.25-.86-.88,1.15,1.25-.87L90,87.53l1.12-1-.74,1.24,1.24-1-.75,1.28L92,87l-.62,1.32,1.12-1.07-.62,1.32L93,87.49l-.5,1.32,1-1.15L93,89l1-1.21-.38,1.41,1-1.24-.5,1.4,1-1.24-.38,1.41.88-1.28-.25,1.44L96,88.35A1.48,1.48,0,0,1,97.2,89.8v68.7a1.38,1.38,0,0,1-.5,1.16,1.58,1.58,0,0,1-1,.33A1,1,0,0,1,95.45,160Z"/><polygon class="cls-1" points="99.94 65.54 44.62 33.51 99.94 1.48 155.5 33.51 99.94 65.54"/><path class="cls-2" d="M152.52,33.51,99.94,3.17,47.48,33.51,99.94,63.85l52.58-30.34ZM99.32,66.78l-55.45-32a1.48,1.48,0,0,1,0-2.57L99.32.23a1.17,1.17,0,0,1,1.36,0l55.57,32a1.48,1.48,0,0,1,0,2.57l-55.57,32c-.12.17-.37.21-.74.21A.74.74,0,0,1,99.32,66.78Z"/><polygon class="cls-3" points="155.5 104.89 99.94 136.92 99.94 65.54 155.5 33.51 155.5 104.89"/><path class="cls-2" d="M154,104.06v-68L101.43,66.37v68L154,104.06ZM99.32,138.17a1.37,1.37,0,0,1-.75-1.25V65.54a1.38,1.38,0,0,1,.75-1.28l55.44-32a1.57,1.57,0,0,1,1.49,0,1.72,1.72,0,0,1,.75,1.29v71.38a1.62,1.62,0,0,1-.75,1.28l-55.57,32c-.12.16-.37.19-.74.19A.76.76,0,0,1,99.32,138.17Z"/><polygon class="cls-4" points="44.62 104.89 99.94 136.92 99.94 65.54 44.62 33.51 44.62 104.89"/><path class="cls-2" d="M44.62,104.89h0Zm54-38.52L46,36.08v68l52.58,30.3v-68Zm.75,71.8-55.45-32a1.37,1.37,0,0,1-.75-1.28V33.51a1.43,1.43,0,0,1,.75-1.29,1.34,1.34,0,0,1,1.37,0l55.44,32a1.36,1.36,0,0,1,.75,1.28v71.38a1.36,1.36,0,0,1-.75,1.25c-.12.16-.37.19-.74.19A.76.76,0,0,1,99.32,138.17Z"/></g></svg>