<svg xmlns="http://www.w3.org/2000/svg" width="200" height="200" viewBox="0 0 200 200"><defs><style>.cls-1{fill:#5bae84;}.cls-1,.cls-2,.cls-3,.cls-4{fill-rule:evenodd;}.cls-3{fill:#fff;}.cls-4{fill:#a2cfb6;}</style></defs><g id="Layer_3" data-name="Layer 3"><path class="cls-1" d="M173.34,142.38a81.38,81.38,0,0,1-2.73,21.24,50.29,50.29,0,0,1-9.55,18.27,37.09,37.09,0,0,1-8.93,7.25l-7.82,4.52a37.82,37.82,0,0,0,12.53-12.06,53.19,53.19,0,0,0,6-13.46,81.72,81.72,0,0,0,2.72-21.23c0-14.66,1.74-31.68-2.1-46.34a74.34,74.34,0,0,0-6.7-16.74,82.41,82.41,0,0,0-11.78-16.64C138.86,61,132.41,55.88,124.1,53.13a24,24,0,0,0-10.3-1.08c-2.23.37-2.49.62-4.72,1.77l-5.83,3.41a10.9,10.9,0,0,1-7.32,1.28A18.43,18.43,0,0,1,90.85,57a32.9,32.9,0,0,1-4.1-2.18C77,49.21,67.28,43.57,57.48,37.93l7.81-4.52c9.8,5.64,19.48,11.28,29.28,16.91a38.14,38.14,0,0,0,3.35,1.85c5.21,2.4,7.94,2.84,12.65.21l5.21-2.88a18.43,18.43,0,0,1,10.92-2c8.93,1.12,16.37,6.22,22.82,12.1A77.1,77.1,0,0,1,162.3,75.31a84.71,84.71,0,0,1,9.06,20.74C175.08,110.74,173.34,127.78,173.34,142.38Z"/><path class="cls-2" d="M103.25,55.51a24.59,24.59,0,0,1-6-2,39.52,39.52,0,0,1-3.48-1.89c-8.18-4.74-16.37-9.46-24.43-14.15l-4.1-2.36-4.83,2.84.12.13C69.51,43.2,78.44,48.39,87.5,53.57a33.29,33.29,0,0,0,4,2.1,16.46,16.46,0,0,0,4.59,1.4A9.18,9.18,0,0,0,102.51,56l.74-.44Zm68.6,86.87Zm0,0c0-3.46.12-7,.25-10.69.37-11.94.62-24.26-2.23-35.28a80.91,80.91,0,0,0-8.81-20.33,82.46,82.46,0,0,0-12.53-15.43c-7.94-7.2-14.76-10.82-22-11.73a16.91,16.91,0,0,0-9.42,1.53,26.55,26.55,0,0,1,7.44,1.31c7.44,2.47,14,6.91,21.34,14.45a93.34,93.34,0,0,1,12.15,16.91,84.36,84.36,0,0,1,6.83,17.08c3,11.4,2.6,24,2.35,36.05-.12,3.66-.25,7.21-.25,10.66a83.64,83.64,0,0,1-2.85,21.64,49.7,49.7,0,0,1-6.2,13.87,8.06,8.06,0,0,1-.87,1.28,33.2,33.2,0,0,0,2.85-2.76,46.1,46.1,0,0,0,9.31-17.69,78,78,0,0,0,2.6-20.87Zm-28.78,52a1.43,1.43,0,0,1,.5-2,36.23,36.23,0,0,0,12-11.6,50.88,50.88,0,0,0,5.83-13.08A77.78,77.78,0,0,0,164,146.91c0-3.45.12-7,.25-10.7.37-11.93.62-24.24-2.24-35.26a72.22,72.22,0,0,0-6.57-16.43,81.3,81.3,0,0,0-11.66-16.3c-6.95-7.16-13.15-11.4-20.1-13.71a23.24,23.24,0,0,0-9.68-1,8.92,8.92,0,0,0-3.72,1.32l-6.45,3.7A12.15,12.15,0,0,1,95.69,60a19.72,19.72,0,0,1-5.46-1.6A41.13,41.13,0,0,1,86,56.13c-8.93-5.24-18-10.37-26.92-15.56l-2.36-1.36a1.62,1.62,0,0,1,0-2.55l7.94-4.49a1.22,1.22,0,0,1,1.37,0l4.71,2.72Q83,42,95.31,49.05a26.53,26.53,0,0,0,3.23,1.8c5,2.28,7.07,2.6,11.41.26l5.21-2.92A19.09,19.09,0,0,1,126.82,46c10.3,1.23,18.49,7.69,23.82,12.47a87.28,87.28,0,0,1,12.9,16.05,82,82,0,0,1,9.18,21.12c3,11.43,2.61,23.95,2.36,36.08-.13,3.62-.25,7.21-.25,10.62h0A83.33,83.33,0,0,1,172,164a49.67,49.67,0,0,1-9.92,18.85,41.49,41.49,0,0,1-9.17,7.53l-7.82,4.53a1.69,1.69,0,0,1-.75.16A1.43,1.43,0,0,1,143.07,194.41Z"/><path class="cls-3" d="M165.52,146.91c0,23-8.06,39.17-21.21,46.75s-31.13,6.5-51.11-5L57.48,168.06V37.93c8.93,5.15,17.74,10.26,26.67,15.39A55.66,55.66,0,0,0,90.85,57c4.59,2,8.68,2.14,12,.38,5-2.68,7-5.72,14.27-5.53,4.34.13,9.3,1.65,14.51,4.61,9.43,5.43,17.86,14.7,23.94,25.31s9.92,22.59,9.92,33.37Z"/><path class="cls-2" d="M116.4,53.32c-4.46,0-6.7,1.44-9.42,3.25a34.66,34.66,0,0,1-3.48,2.15c-3.6,1.93-8.31,1.85-13.27-.37a42.16,42.16,0,0,1-5.46-2.92l-1.36-.83C75.22,49.87,67,45.17,59,40.45V167.2l35,20.21c18.73,10.85,36.34,12.63,49.62,5S164,168.6,164,146.91V115.17c0-10.19-3.35-21.77-9.68-32.63s-14.64-19.66-23.44-24.76a29.66,29.66,0,0,0-13.77-4.41,3.78,3.78,0,0,0-.75,0ZM92.46,189.92l-35.6-20.58a1.48,1.48,0,0,1-.75-1.28V37.93a1.4,1.4,0,0,1,.75-1.27,1.37,1.37,0,0,1,1.36,0C67.16,41.8,76,47,84.89,52.09l1.37.82a55.32,55.32,0,0,0,5.21,2.81c4.09,1.81,7.81,1.92,10.67.41a36.19,36.19,0,0,0,3.22-2c3.1-2,5.71-3.82,11.79-3.65,4.83.12,9.92,1.77,15.26,4.81,9.3,5.35,18,14.52,24.43,25.8S167,104.48,167,115.17v31.74c0,22.8-7.81,39.83-21.95,48a38.89,38.89,0,0,1-19.6,5.06C115.29,200,104,196.63,92.46,189.92Z"/><path class="cls-1" d="M136.5,133.7a32.48,32.48,0,0,1,8.68,12.88c4,10.33,1.62,19.13-5.33,19.72S124,159,120,148.64c-1.74-4.77-2.36-9.67-1.37-13.5s3.6-5.92,6.83-6.21S132.65,130.24,136.5,133.7Z"/><path class="cls-2" d="M135.51,134.77h0c-3.36-3-6.95-4.61-9.93-4.36-2.73.2-4.71,2-5.58,5.1-.87,3.41-.37,7.9,1.37,12.64,3.72,9.54,12.15,17.24,18.35,16.71a5.62,5.62,0,0,0,4.47-2.77c2.11-3.29,2-9.05-.25-15a32.33,32.33,0,0,0-8.43-12.35Zm-16.75,14.41c-2.11-5.27-2.6-10.42-1.49-14.45,1.24-4.28,4.1-6.92,8.06-7.25s8.07,1.53,12,5.11h0a34.45,34.45,0,0,1,9.18,13.5c2.72,6.87,2.72,13.44.12,17.57a8.47,8.47,0,0,1-6.7,4.08c-.37,0-.62,0-.87,0C131.66,167.77,122.73,159.83,118.76,149.18Z"/><path class="cls-1" d="M108.21,158.18c5.59,5,8.94,13.63,7.32,19.22-.74,2.8-2.6,4.33-4.83,4.53-5.09.41-11.54-5.35-14.52-12.88s-1.12-13.91,4-14.31C102.51,154.52,105.36,155.68,108.21,158.18Z"/><path class="cls-2" d="M107.22,159.25h0c-2.35-2.13-4.84-3.25-6.94-3.08a3.77,3.77,0,0,0-3,1.81c-1.37,2.3-1.37,6.33.25,10.57,2.73,6.8,8.68,12.24,12.9,11.9a4.1,4.1,0,0,0,3.72-3.41c1.36-5-1.86-13.18-7-17.79Zm-12.4,10.33c-1.86-5.14-1.86-10.05,0-13.16a6.66,6.66,0,0,1,5.21-3.17c2.85-.21,6.07,1.15,9.18,3.83h0c6.08,5.47,9.55,14.56,7.81,20.74a7,7,0,0,1-6.32,5.56,2.15,2.15,0,0,1-.5,0C104.49,183.42,97.92,177.49,94.82,169.58Z"/><path class="cls-1" d="M134.76,74.44a46.79,46.79,0,0,1,12.16,18c5.58,14.32,2.23,26.63-7.45,27.41s-22.08-10.2-27.53-24.57c-2.61-6.67-3.35-13.46-2-18.81s5-8.26,9.43-8.64S129.43,69.66,134.76,74.44Z"/><path class="cls-2" d="M134.76,74.44Zm-14.39-5.19a7.11,7.11,0,0,0-.86,0c-4,.33-6.83,3-8.2,7.54-1.23,4.89-.61,11.28,2,17.89,5.09,13.33,16.13,23.7,25.06,23.7.37,0,.62,0,1,0a8.52,8.52,0,0,0,6.7-4.07c3-4.74,2.85-13-.5-21.41a43.81,43.81,0,0,0-11.78-17.37h0c-4.47-4-9.3-6.29-13.4-6.29Zm-9.8,26.55c-2.73-7.25-3.47-14.24-2-19.72,1.61-5.76,5.45-9.26,10.66-9.71s11,2.06,16.5,7h0a48.1,48.1,0,0,1,12.53,18.52c3.72,9.42,3.72,18.38.25,24a11.55,11.55,0,0,1-8.93,5.43c-.37,0-.74,0-1.11,0C128.43,121.35,116.16,110.17,110.57,95.8Z"/><path class="cls-1" d="M71.87,189.92c-7.82-11.19-2.11-20.58,3.6-30,11.78-19.27,12.9-28-1-45.76l-37.21.16-4.35,4a23.84,23.84,0,0,0-7.06,12.14c-3.6,17,23.44,51.4,35.72,61.94C68.77,198.51,78,198.55,71.87,189.92Z"/><path class="cls-2" d="M71.87,189.92Zm1.86-74.25-35.85.12-4,3.66a22.58,22.58,0,0,0-6.58,11.37c-3.47,16.05,22.83,49.92,35.23,60.53,4.35,3.71,8.81,4.46,9.68,3.63.37-.29.25-1.69-1.49-4.21h0c-8.43-12-2.48-22,3.47-31.59,11.29-18.53,12.66-26.59-.49-43.51Zm-13,77.9c-12.28-10.4-40.06-45.51-36.22-63.33a25,25,0,0,1,7.44-12.88l4.34-4.07a1.49,1.49,0,0,1,1-.42l37.21-.11h0a1.28,1.28,0,0,1,1.12.56c14.51,18.37,12.9,28,1.12,47.37-5.59,9.22-10.92,17.95-3.6,28.41,3.23,4.56,2.36,6.91,1.11,8.06a4.63,4.63,0,0,1-3.22,1C68,198.19,64.18,196.5,60.7,193.57Z"/><path class="cls-2" d="M72.61,196.41a1.56,1.56,0,0,0,.87-.32,1.49,1.49,0,0,0,.25-2.06c-4.47-5.61-9.18-13.54-6.82-25.43a95,95,0,0,1,5-16.1c3.6-9.37,6.7-17.48,1.61-29.59a1.6,1.6,0,0,0-2-.78,1.43,1.43,0,0,0-.75,1.94c4.72,11,2,18.24-1.61,27.36A99.22,99.22,0,0,0,64.05,168c-2.6,13,2.61,21.73,7.32,27.83A1.76,1.76,0,0,0,72.61,196.41Z"/><path class="cls-2" d="M71.5,194.32a1.29,1.29,0,0,0,1-.46,1.36,1.36,0,0,0,0-2.05C52.89,172.67,51.89,139,54.87,128.1a1.41,1.41,0,0,0-1-1.76,1.5,1.5,0,0,0-1.86,1c-3,11.31-2.11,46.54,18.36,66.55A2,2,0,0,0,71.5,194.32Z"/><path class="cls-2" d="M70.63,197.2a1.43,1.43,0,0,0,1.36-.91,1.36,1.36,0,0,0-.74-1.88,3.41,3.41,0,0,1-.5-.21,1.6,1.6,0,0,0-.49-1.24c-16.88-15.6-39.45-47.53-28.54-66.87a1.33,1.33,0,0,0-.49-2,1.49,1.49,0,0,0-2,.53c-11,19.39,7.45,47,21.34,62.52-11.79-10.83-23.94-30-27.17-45.1-1.24-5.77-1.86-13.71,2.85-18.61a1.53,1.53,0,0,0-.12-2.1,1.37,1.37,0,0,0-2,.09c-4.34,4.6-5.71,11.93-3.6,21.22C35,163.49,55,191,70.13,197.07A1,1,0,0,0,70.63,197.2Z"/><path class="cls-3" d="M30.56,114.64V73.45c.25,4.32,3.35,7.29,7,9.38,8.68,4.94,21.21,5.23,30.39,1.57,4.71-1.9,9.92-5.43,10.3-11v40.87l-.13.32C76.34,132.05,32.3,132.13,30.56,114.64Z"/><path class="cls-2" d="M30.56,114.64h0ZM76.71,80.28a21.52,21.52,0,0,1-8.31,5.47c-10.05,4-22.83,3.34-31.64-1.64a22,22,0,0,1-4.84-3.83v34l.13.29c.74,8.07,12.16,11.77,22.33,11.77h0c10.17,0,21.46-3.7,22.33-12v-34ZM29.07,114.82V73.45A1.48,1.48,0,0,1,30.44,72a1.29,1.29,0,0,1,1.48,1.35c.25,3.18,2.24,5.89,6.33,8.24,7.94,4.53,20,5.09,29.15,1.47,3.35-1.35,8.94-4.44,9.31-9.66A1.41,1.41,0,0,1,78.2,72h0a1.48,1.48,0,0,1,1.36,1.48v41.37c-1,9.91-13.28,14.35-25.18,14.4h0C42.47,129.22,30.06,124.76,29.07,114.82Z"/><path class="cls-1" d="M37.51,87.86c-3.48-2-6.83-5.19-6.95-9.43V15.8c.49,7.65,10.05,11.56,16.5,12.75,8.68,1.6,20.84.38,27.54-5.84a10.65,10.65,0,0,0,3.6-6.91V78.43C78,84,72.12,87.81,67.4,89.58,58.35,93.08,46.07,92.66,37.51,87.86Z"/><path class="cls-2" d="M37.51,87.86h0Zm39.2-65.24c-.37.42-.75.78-1.12,1.19-7.19,6.59-20,7.83-28.9,6.18-5.21-1-11.29-3.41-14.77-7.37V78.38c.13,4,4,6.84,6.33,8.2,7.82,4.41,19.6,5.1,28.66,1.64,4.59-1.76,9.67-5.26,9.8-9.79V22.62ZM36.76,89.09h0c-3.47-2-7.57-5.51-7.69-10.66V15.8a1.43,1.43,0,0,1,2.85-.14c.38,6.43,8.56,10.17,15.38,11.45,8.07,1.53,19.86.45,26.31-5.47a8.56,8.56,0,0,0,3.1-6,1.39,1.39,0,0,1,1.49-1.35,1.46,1.46,0,0,1,1.36,1.49V78.47C79.43,86,70.63,90,67.9,90.94a37.76,37.76,0,0,1-13.52,2.43A36.1,36.1,0,0,1,36.76,89.09Z"/><path class="cls-4" d="M54.38,29.21c-6.08,0-12.28-1.37-16.87-4S30.56,19,30.56,15.43s2.23-7,7-9.72,10.79-4,16.87-4S66.53,3,71.12,5.71s7.08,6.22,7.08,9.72-2.36,7.07-7.08,9.75A34.18,34.18,0,0,1,54.38,29.21Z"/><path class="cls-2" d="M54.38,3.16C48.17,3.16,42.47,4.52,38.25,7c-4.09,2.3-6.33,5.32-6.33,8.45s2.24,6.16,6.33,8.47c4.22,2.47,9.92,3.83,16.13,3.83A33.06,33.06,0,0,0,70.5,23.9c4-2.31,6.21-5.31,6.21-8.47S74.47,9.28,70.5,7A33.17,33.17,0,0,0,54.38,3.16ZM36.76,26.45c-5-2.88-7.69-6.8-7.69-11s2.73-8.12,7.69-11A35.81,35.81,0,0,1,54.38.24,35.63,35.63,0,0,1,71.87,4.43c5,2.88,7.69,6.79,7.69,11s-2.73,8.14-7.69,11a35.52,35.52,0,0,1-17.49,4.2A35.71,35.71,0,0,1,36.76,26.45Z"/><path class="cls-4" d="M35.27,12.5c0-14.44,38.09-14.44,38.09,0S35.27,27,35.27,12.5Z"/><path class="cls-2" d="M54.38,3.12c-8.81,0-17.62,3.25-17.62,9.38s8.81,9.39,17.62,9.39h0c8.68,0,17.49-3.21,17.49-9.39S63.06,3.12,54.38,3.12ZM33.79,12.5h0C33.79,4.07,44.45.19,54.38.19h0c9.8,0,20.47,3.88,20.47,12.31S64.18,24.8,54.38,24.8h0C44.45,24.8,33.79,21,33.79,12.5Z"/><path class="cls-4" d="M72.86,189.1c-4.09-5.47-2-11.95.13-18.11,2.23-6.75-10.3,2.66-19.23-.79C42.84,166,45.07,153.74,35.64,152c-3.34-.62-6.32-.94-5,2.18,7.2,16.91,21.71,32,30.52,39.55C68.4,199.75,78.94,197.69,72.86,189.1Z"/><path class="cls-2" d="M71.75,190c-4.59-6-2.24-13.08-.13-19.42,0-.29.13-.45.13-.62a34.59,34.59,0,0,0-4,.86c-4.09,1.16-9.67,2.68-14.51.78-6-2.29-8.31-6.78-10.42-10.72-1.86-3.75-3.47-6.68-7.44-7.42-2.86-.53-3.6-.41-3.6-.53a1.9,1.9,0,0,0,.25.7c6.45,15.35,19.84,30.24,30.14,39,4.09,3.5,8.93,3.75,10.55,2.3,1.36-1.23-.25-3.87-1-4.94Zm-11.42,4.87c-10.67-9-24.31-24.25-31-40.08-.62-1.46-.62-2.65.12-3.51,1.24-1.52,3.73-1.2,6.45-.7,5.46,1,7.57,5,9.55,8.93,2,3.66,4,7.46,8.81,9.38,4,1.52,9.06.17,12.78-.86,3.47-.95,5.71-1.52,7-.17,1.24,1.2.62,3.05.37,3.74-2,6.1-4,11.83-.25,16.63v0c3.6,5.13,1.61,7.9.62,8.84a7.07,7.07,0,0,1-4.84,1.57A15.3,15.3,0,0,1,60.33,194.82Z"/></g></svg>