<svg xmlns="http://www.w3.org/2000/svg" width="200" height="200" viewBox="0 0 200 200"><defs><style>.cls-1{fill:#fa8d71;}.cls-1,.cls-2,.cls-3,.cls-4{fill-rule:evenodd;}.cls-3{fill:#ffba9b;}.cls-4{fill:#fff;}</style></defs><g id="Layer_3" data-name="Layer 3"><polygon class="cls-1" points="54.44 125.97 66.33 119.1 66.33 130.96 54.44 137.81 54.44 125.97"/><path class="cls-2" d="M65,130.23v-8.94l-9.32,5.4v8.93L65,130.23ZM53.8,138.9a1.19,1.19,0,0,1-.65-1.09V126a1.22,1.22,0,0,1,.65-1.1L65.68,118a1.14,1.14,0,0,1,1.18,0,1.18,1.18,0,0,1,.64,1.08V131a1.2,1.2,0,0,1-.64,1.1L55.08,138.9a1.39,1.39,0,0,1-.64.17A1.36,1.36,0,0,1,53.8,138.9Z"/><polygon class="cls-1" points="54.44 23.28 66.33 16.42 66.33 26.34 54.44 33.2 54.44 23.28"/><path class="cls-2" d="M65,25.61v-7L55.72,24v7L65,25.61ZM53.8,34.29a1.19,1.19,0,0,1-.65-1.09V23.28a1.17,1.17,0,0,1,.65-1.08l11.88-6.87a1.14,1.14,0,0,1,1.18,0,1.21,1.21,0,0,1,.64,1.09v9.92a1.18,1.18,0,0,1-.64,1.09L55.08,34.29a1.39,1.39,0,0,1-.64.17A1.36,1.36,0,0,1,53.8,34.29Z"/><polygon class="cls-1" points="54.44 33.2 66.33 26.34 145.56 72.11 133.68 78.97 54.44 33.2"/><path class="cls-2" d="M143,72.11,66.33,27.8,56.9,33.2l76.77,44.31,9.32-5.4Zm-10,8L53.8,34.29a1.24,1.24,0,0,1,0-2.18l11.88-6.86a1.1,1.1,0,0,1,1.18,0L146.2,71a1.2,1.2,0,0,1,.65,1.09,1.17,1.17,0,0,1-.65,1.09l-11.88,6.86a1.31,1.31,0,0,1-1.29,0Z"/><polygon class="cls-1" points="28.1 8.13 40.09 1.26 66.33 16.42 54.44 23.28 28.1 8.13"/><path class="cls-2" d="M63.76,16.42,40.09,2.72,30.67,8.13l23.77,13.7,9.32-5.41Zm-10,8L27.56,9.22a1.26,1.26,0,0,1,0-2.19L39.45.17a1.16,1.16,0,0,1,1.18,0L66.86,15.33a1.26,1.26,0,0,1,0,2.19L55.08,24.37a1.28,1.28,0,0,1-.64.17A1.25,1.25,0,0,1,53.8,24.37Z"/><polygon class="cls-3" points="133.68 183.57 133.68 171.74 54.44 125.97 54.44 137.81 28.1 122.66 28.1 8.13 54.44 23.28 54.44 33.2 133.68 78.97 133.68 69.04 159.91 84.2 159.91 198.73 133.68 183.57"/><path class="cls-2" d="M133.67,183.57Zm25-98.63L135,71.23V79a1.18,1.18,0,0,1-.64,1.09,1.34,1.34,0,0,1-1.29,0L53.8,34.29a1.19,1.19,0,0,1-.65-1.09V24L29.38,10.3V121.93l23.77,13.69V126a1.22,1.22,0,0,1,.65-1.1,1.32,1.32,0,0,1,1.28,0l79.24,45.78a1.16,1.16,0,0,1,.64,1.09v11.12l23.66,13.69V84.94Zm.65,114.89L133,184.67a1.22,1.22,0,0,1-.64-1.1V172.46L55.72,128.15v9.66a1.43,1.43,0,0,1-.64,1.09,1.27,1.27,0,0,1-1.28,0L27.56,123.74a1.22,1.22,0,0,1-.64-1.08V8.13A1.23,1.23,0,0,1,27.56,7a1.14,1.14,0,0,1,1.18,0L55.08,22.2a1.39,1.39,0,0,1,.64,1.08v9.19l76.67,44.31V69A1.21,1.21,0,0,1,133,68a1.34,1.34,0,0,1,1.29,0l26.23,15.15a1.21,1.21,0,0,1,.65,1.09V198.73a1.21,1.21,0,0,1-.65,1.1,1.53,1.53,0,0,1-.64.17A1.49,1.49,0,0,1,159.27,199.83Z"/><polygon class="cls-4" points="131.43 86.8 57.22 43.98 57.22 118.48 131.43 161.3 131.43 86.8"/><path class="cls-2" d="M130.14,87.53,58.51,46.16v71.59l71.63,41.37V87.53Zm.65,74.85-74.1-42.81a1.19,1.19,0,0,1-.65-1.09V44a1.23,1.23,0,0,1,.65-1.1,1.13,1.13,0,0,1,1.18,0l74.2,42.83a1.43,1.43,0,0,1,.64,1.09v74.5a1.43,1.43,0,0,1-.64,1.08,1.28,1.28,0,0,1-.64.17A1.25,1.25,0,0,1,130.79,162.38Z"/><polygon class="cls-1" points="71.97 117.79 118.12 118.17 71.97 65.28 71.97 117.79"/><path class="cls-2" d="M73.26,116.54l42,.35-42-48.26v47.91Zm-.32-52.08,46.14,52.89a1.19,1.19,0,0,1,.11,1.34,1.45,1.45,0,0,1-1.07.74L72,119.05a1.26,1.26,0,0,1-1.29-1.26V65.28a1.26,1.26,0,0,1,.86-1.18A.94.94,0,0,1,72,64,1.54,1.54,0,0,1,72.94,64.46Z"/><path class="cls-1" d="M34.52,110.21a6.79,6.79,0,0,0,3,5.19l7.6,4.38c1.72,1,3,.18,3-1.73h0v-6.91a6.47,6.47,0,0,0-3-5.19c-2.56-1.45-5-2.92-7.6-4.38-1.6-.95-3-.18-3,1.74h0Z"/><path class="cls-2" d="M36.24,102.42a.83.83,0,0,0-.22,0c-.1.07-.21.36-.21.86v6.9a5.33,5.33,0,0,0,2.35,4.1l7.61,4.37c.42.25.75.28.85.21s.22-.36.22-.84v-6.91a5.33,5.33,0,0,0-2.36-4.1l-7.6-4.38a1.21,1.21,0,0,0-.64-.24Zm8.24,18.45-7.6-4.38a8.09,8.09,0,0,1-3.53-6.28v-6.9a3.3,3.3,0,0,1,1.49-3,3.25,3.25,0,0,1,3.32.2l7.61,4.38a8,8,0,0,1,3.64,6.28v6.91a3.31,3.31,0,0,1-1.5,3,2.93,2.93,0,0,1-1.39.37A4.12,4.12,0,0,1,44.48,120.87Z"/><path class="cls-1" d="M34.52,32a6.77,6.77,0,0,0,3,5.18l7.6,4.38c1.72,1,3,.18,3-1.73h0V32.88a6.43,6.43,0,0,0-3-5.18c-2.56-1.47-5-2.92-7.6-4.38-1.6-.95-3-.18-3,1.73Z"/><path class="cls-2" d="M36.24,24.17a.83.83,0,0,0-.22,0c-.1.07-.21.36-.21.85V32a5.31,5.31,0,0,0,2.35,4.09l7.61,4.38c.42.25.75.28.85.22a1.19,1.19,0,0,0,.22-.85V32.88a5.31,5.31,0,0,0-2.36-4.09l-7.6-4.37a1.25,1.25,0,0,0-.64-.25Zm8.24,18.45-7.6-4.38A8.09,8.09,0,0,1,33.35,32V25.05a3.31,3.31,0,0,1,1.49-3,3.23,3.23,0,0,1,3.32.21l7.61,4.38a7.92,7.92,0,0,1,3.64,6.27v6.91a3.33,3.33,0,0,1-1.5,3,2.93,2.93,0,0,1-1.39.37A4.12,4.12,0,0,1,44.48,42.62Z"/><path class="cls-1" d="M34.52,84.13a6.75,6.75,0,0,0,3,5.18c2.57,1.46,5,2.93,7.6,4.38,1.72,1,3,.17,3-1.73h0V85.05a6.42,6.42,0,0,0-3-5.18c-2.56-1.47-5-2.92-7.6-4.38-1.6-.95-3-.18-3,1.72h0Z"/><path class="cls-2" d="M36.24,76.34a.83.83,0,0,0-.22,0,1.18,1.18,0,0,0-.21.84v6.92a5.31,5.31,0,0,0,2.35,4.09l7.61,4.38c.42.25.75.29.85.2s.22-.35.22-.83V85.05A5.33,5.33,0,0,0,44.48,81l-7.6-4.37a1.21,1.21,0,0,0-.64-.24Zm8.24,18.45-7.6-4.38a8.08,8.08,0,0,1-3.53-6.28V77.21a3.33,3.33,0,0,1,1.49-3,3.26,3.26,0,0,1,3.32.22l7.61,4.38a7.9,7.9,0,0,1,3.64,6.27V92a3.34,3.34,0,0,1-1.5,3,3,3,0,0,1-1.39.36A4.21,4.21,0,0,1,44.48,94.79Z"/><path class="cls-1" d="M34.52,58.05a6.78,6.78,0,0,0,3,5.18c2.57,1.46,5,2.92,7.6,4.38,1.72,1,3,.17,3-1.72h0V59a6.48,6.48,0,0,0-3-5.2c-2.56-1.45-5-2.91-7.6-4.36-1.6-1-3-.19-3,1.72h0Z"/><path class="cls-2" d="M36.24,50.25a.83.83,0,0,0-.22,0,1.22,1.22,0,0,0-.21.85v6.92a5.31,5.31,0,0,0,2.35,4.09l7.61,4.37c.42.25.75.3.85.22s.22-.36.22-.84V59a5.31,5.31,0,0,0-2.36-4.1l-7.6-4.38a1.31,1.31,0,0,0-.64-.24ZM44.48,68.7l-7.6-4.38a8.07,8.07,0,0,1-3.53-6.27V51.13a3.33,3.33,0,0,1,1.49-3,3.23,3.23,0,0,1,3.32.22l7.61,4.37A7.92,7.92,0,0,1,49.41,59v6.92a3.28,3.28,0,0,1-1.5,3,2.93,2.93,0,0,1-1.39.37A4.23,4.23,0,0,1,44.48,68.7Z"/><polygon class="cls-1" points="159.91 84.2 171.81 77.34 171.81 191.87 159.91 198.73 159.91 84.2"/><path class="cls-2" d="M170.57,191.16V79.53l-9.37,5.41V196.55l9.37-5.39Zm-11.3,8.67a1.46,1.46,0,0,1-.65-1.1V84.2a1.48,1.48,0,0,1,.65-1.09l11.93-6.85a1.2,1.2,0,0,1,1.24,0,1.26,1.26,0,0,1,.64,1.08V191.87a1.25,1.25,0,0,1-.64,1.09l-11.89,6.87a1.53,1.53,0,0,1-.64.17A1.49,1.49,0,0,1,159.27,199.83Z"/><polygon class="cls-1" points="133.68 69.04 145.56 62.19 171.81 77.34 159.91 84.2 133.68 69.04"/><path class="cls-2" d="M169.28,77.34,145.56,63.65,136.24,69l23.67,13.71,9.37-5.41Zm-10,8L133,70.14A1.25,1.25,0,0,1,133,68l11.89-6.85a1.27,1.27,0,0,1,1.28,0l26.24,15.15a1.24,1.24,0,0,1,0,2.17L160.55,85.3a1.39,1.39,0,0,1-.64.17A1.36,1.36,0,0,1,159.27,85.3Z"/><path class="cls-1" d="M140.1,92.89a6.47,6.47,0,0,0,3,5.18l7.6,4.38c1.61,1,3,.18,3-1.73V93.81a6.74,6.74,0,0,0-3-5.18c-2.57-1.46-5-2.92-7.6-4.38-1.71-1-3-.18-3,1.72Z"/><path class="cls-2" d="M141.71,85.09s-.11,0-.11,0-.21.36-.21.84v6.92A5.34,5.34,0,0,0,143.74,97l7.6,4.38c.43.25.75.28.86.21s.21-.36.21-.85V93.81a5.33,5.33,0,0,0-2.35-4.1l-7.6-4.38a1.73,1.73,0,0,0-.75-.24Zm8.35,18.44-7.6-4.37a7.89,7.89,0,0,1-3.64-6.27V86a3.32,3.32,0,0,1,1.5-3,3.44,3.44,0,0,1,3.42.21l7.6,4.38a7.79,7.79,0,0,1,3.54,6.28v6.91a3.34,3.34,0,0,1-1.5,3,2.72,2.72,0,0,1-1.39.36A3.66,3.66,0,0,1,150.06,103.53Z"/><path class="cls-1" d="M140.1,171.14a6.46,6.46,0,0,0,3,5.18l7.6,4.38c1.61,1,3,.19,3-1.72v-6.92a6.74,6.74,0,0,0-3-5.18c-2.57-1.46-5-2.92-7.6-4.38-1.71-.95-3-.18-3,1.72Z"/><path class="cls-2" d="M141.71,163.34s-.11,0-.11,0-.21.36-.21.84v6.92a5.31,5.31,0,0,0,2.35,4.09l7.6,4.38c.43.25.75.28.86.21s.21-.36.21-.84v-6.92a5.33,5.33,0,0,0-2.35-4.09l-7.6-4.38a1.63,1.63,0,0,0-.75-.25Zm8.35,18.45-7.6-4.37a7.91,7.91,0,0,1-3.64-6.28v-6.92a3.3,3.3,0,0,1,1.5-3,3.41,3.41,0,0,1,3.42.21l7.6,4.38a7.8,7.8,0,0,1,3.54,6.27V179a3.31,3.31,0,0,1-1.5,3,2.62,2.62,0,0,1-1.39.36A3.74,3.74,0,0,1,150.06,181.79Z"/><path class="cls-1" d="M140.1,145.05a6.48,6.48,0,0,0,3,5.19c2.57,1.46,5,2.91,7.6,4.38,1.61.95,3,.17,3-1.74h0V146a6.78,6.78,0,0,0-3-5.2c-2.57-1.45-5-2.91-7.6-4.38-1.71-1-3-.17-3,1.74h0Z"/><path class="cls-2" d="M141.71,137.26l-.11,0c-.11.07-.21.37-.21.85v6.91a5.34,5.34,0,0,0,2.35,4.1l7.6,4.38a.94.94,0,0,0,.86.2c.11-.06.21-.36.21-.85V146a5.33,5.33,0,0,0-2.35-4.1l-7.6-4.38a1.6,1.6,0,0,0-.75-.24Zm8.35,18.44-7.6-4.38a7.86,7.86,0,0,1-3.64-6.27v-6.91a3.32,3.32,0,0,1,1.5-3,3.42,3.42,0,0,1,3.42.22l7.6,4.37a7.79,7.79,0,0,1,3.54,6.28v6.9a3.32,3.32,0,0,1-1.5,3,2.63,2.63,0,0,1-1.39.37A3.75,3.75,0,0,1,150.06,155.7Z"/><path class="cls-1" d="M140.1,119a6.46,6.46,0,0,0,3,5.18c2.57,1.46,5,2.93,7.6,4.38,1.61,1,3,.18,3-1.73h0v-6.93a6.76,6.76,0,0,0-3-5.18c-2.57-1.46-5-2.91-7.6-4.38-1.71-.95-3-.17-3,1.74h0Z"/><path class="cls-2" d="M141.71,111.18s-.11,0-.11,0-.21.36-.21.85V119a5.31,5.31,0,0,0,2.35,4.09l7.6,4.38a1,1,0,0,0,.86.21c.11-.07.21-.37.21-.84v-6.93a5.34,5.34,0,0,0-2.35-4.09l-7.6-4.38a1.57,1.57,0,0,0-.75-.23Zm8.35,18.44-7.6-4.38a7.88,7.88,0,0,1-3.64-6.27v-6.91a3.3,3.3,0,0,1,1.5-3,3.41,3.41,0,0,1,3.42.21l7.6,4.38a7.77,7.77,0,0,1,3.54,6.26v6.92a3.34,3.34,0,0,1-1.5,3,2.62,2.62,0,0,1-1.39.36A3.74,3.74,0,0,1,150.06,129.62Z"/></g></svg>