<svg xmlns="http://www.w3.org/2000/svg" width="200" height="200" viewBox="0 0 200 200"><defs><style>.cls-1{fill:#5bae84;}.cls-1,.cls-2,.cls-3,.cls-4{fill-rule:evenodd;}.cls-3{fill:#fff;}.cls-4{fill:#a2cfb6;}</style></defs><g id="Layer_3" data-name="Layer 3"><path class="cls-1" d="M128.68,179.69l18-10.47c-21.17,11.93-47.63-8.06-61-23.44C66.81,124.24,50.18,87.59,57.36,59c2.14-8.4,6.43-15.85,14-20.31l-19,11c-19,12.08-16,42.72-10.08,61.53,8.7,27.84,32.39,61.57,61.24,70.23C111.92,184,120.75,184.16,128.68,179.69Z"/><path class="cls-2" d="M127.93,178.39l7.18-4.14c-18,1.38-37.55-12.71-50.53-27.51-19-21.65-36-58.48-28.6-88.12a37,37,0,0,1,5.29-12.41l-8.06,4.72c-17.52,11-16.13,39.13-9.58,59.82C52.45,138.84,76,171.66,103.86,180c9.07,2.76,17.26,2.21,24.07-1.63Zm-25,4.47c-28.86-8.69-53.18-42.39-62.12-71.24C34.05,90,32.66,60.37,51.57,48.38l19-11a1.48,1.48,0,0,1,1.51,2.54C65.55,43.83,61,50.39,58.75,59.38c-6.81,27.29,8.94,63.62,28,85.39,12.35,14.09,38.68,34.78,59.35,23.16a1.59,1.59,0,0,1,2,.59,1.5,1.5,0,0,1-.63,2l-18,10.44h0a29.74,29.74,0,0,1-14.62,3.77A40.94,40.94,0,0,1,103,182.86Z"/><path class="cls-3" d="M96.68,50.34c29.1,16.77,52.67,57.61,52.67,91.13s-23.57,47.2-52.67,30.39S44,114.3,44,80.74,67.57,33.54,96.68,50.34Z"/><path class="cls-2" d="M96.68,50.34ZM73.11,44.62a26,26,0,0,0-13,3.3C50.68,53.39,45.52,65,45.52,80.74c0,33,23.31,73.36,51.91,89.87,13.49,7.82,26.21,9.15,35.66,3.68s14.75-17.09,14.75-32.82c0-33-23.31-73.32-51.92-89.87h0c-8.06-4.65-15.75-7-22.81-7ZM95.92,173.16c-29.49-17-53.43-58.44-53.43-92.42,0-16.81,5.8-29.35,16.26-35.37S82.82,40.65,97.43,49h0c29.36,17,53.3,58.45,53.3,92.43,0,16.81-5.67,29.34-16.12,35.37a28.36,28.36,0,0,1-14.5,3.71C112.68,180.55,104.49,178.09,95.92,173.16Z"/><path class="cls-1" d="M109,28.73c-13.23-7.44-30.5-12.91-45-5.17L46,34c26.59-13.26,58.22,11.33,74.6,30.52,22,25.75,40.82,67.76,34.14,101.87-2.14,11.12-7,20.77-16.63,27.13,4.29-2.52,16.89-9.41,20.16-11.92,20.79-15.67,17.39-50.49,10.84-72.28C159.55,77.81,137.63,45.67,109,28.73Z"/><path class="cls-2" d="M108.27,30c-11.72-6.69-28.86-13-43.47-5.19l-7.31,4.23c23.06-2.63,48.13,15.64,64.26,34.49,21.42,25.08,41.46,68.05,34.53,103.12-1.64,7.81-4.29,14.25-8.19,19.48,3.9-2.3,7.81-4.56,9.32-5.73,19-14.33,17.39-47,10.21-70.69-10.08-33.52-32.89-64-59.35-79.71Zm28.6,164.23a1.42,1.42,0,0,1,.38-2c8.44-5.56,13.73-14.12,16-26.16,6.81-34.07-12.72-76-33.77-100.62C101.09,44,71,23.21,46.65,35.33a1.39,1.39,0,0,1-1.89-.61,1.57,1.57,0,0,1,.51-2L63.41,22.26c15.75-8.45,33.9-1.85,46.37,5.18v0c27.09,16,50.4,47.24,60.74,81.44,7.68,25.7,8.82,58.61-11.35,73.87-2.64,2-10.58,6.47-16.25,9.73-1.64.92-3,1.72-4,2.26a1.22,1.22,0,0,1-.76.22A1.43,1.43,0,0,1,136.87,194.26Z"/><polygon class="cls-1" points="129.56 179.13 147.71 168.69 147.2 168.98 146.7 169.22 128.68 179.69 129.06 179.43 129.56 179.13"/><path class="cls-2" d="M128.68,181.15a1.63,1.63,0,0,0,.76-.18l19-11a1.59,1.59,0,0,0,.51-2,1.54,1.54,0,0,0-2-.54l-18.14,10.46v0l-.88.54a1.34,1.34,0,0,0-.51,2A1.44,1.44,0,0,0,128.68,181.15Z"/><polygon class="cls-1" points="53.33 49.1 71.35 38.69 71.85 38.38 72.36 38.13 54.21 48.59 53.71 48.84 53.33 49.1"/><path class="cls-2" d="M53.33,50.6a2,2,0,0,0,.76-.21l18.9-11a1.48,1.48,0,0,0,.63-2,1.49,1.49,0,0,0-2-.58l-1,.54-18,10.44a1.49,1.49,0,0,0-.63,2A1.86,1.86,0,0,0,53.33,50.6Z"/><path class="cls-4" d="M53.46,31.24c-4.79,2-11.85,6.48-15.25,10.66l-4.28-6.73c-4-5.77,11.21-15.8,14.49-11.79Z"/><path class="cls-2" d="M51.32,30.57l-4-6.28c-.76-.95-4.66,0-8.19,2.69-2.89,2.22-5.29,5.39-3.9,7.4l3.27,5.1a49,49,0,0,1,12.86-8.91ZM38.21,43.36a1.27,1.27,0,0,1-1.13-.67L32.79,36c-2.27-3.18-.5-7.65,4.54-11.45,4.28-3.26,9.83-5.05,12.35-2l5,7.87A2,2,0,0,1,55,31.66a2.12,2.12,0,0,1-.88.92c-4.79,2-11.6,6.4-14.62,10.24a1.7,1.7,0,0,1-1.26.58Z"/><path class="cls-1" d="M85,24.38v6a4.9,4.9,0,0,0,.63,1.25,8.19,8.19,0,0,0,3.91,2.63,15.34,15.34,0,0,0,10.7-.46,8.88,8.88,0,0,0,2.15-1.46,4.38,4.38,0,0,0,1.13-1.71l.13-.25v-6a.82.82,0,0,1-.13.51,6,6,0,0,1-3.28,3.17A14.92,14.92,0,0,1,88,27.85a6.48,6.48,0,0,1-2.14-1.71,3.81,3.81,0,0,1-.63-1c-.13-.12-.13-.37-.25-.5Z"/><path class="cls-2" d="M102.1,28.64a8.11,8.11,0,0,1-1.26.76,16.31,16.31,0,0,1-13.49-.2c-.25-.18-.63-.34-.88-.56V30a1.21,1.21,0,0,0,.38.8,6.43,6.43,0,0,0,3.15,2,13.68,13.68,0,0,0,9.58-.36,12,12,0,0,0,1.76-1.17,2.9,2.9,0,0,0,.76-1.17V28.64Zm-13,7a9.78,9.78,0,0,1-4.79-3.18,4.35,4.35,0,0,1-.76-1.8c0-.09-.12-.47-.12-.54V24.38a1.52,1.52,0,0,1,1.38-1.49,1.6,1.6,0,0,1,1.64,1.16l-.75.33h.75v.21l.13,0a.89.89,0,0,0,.37.67,5.62,5.62,0,0,0,1.77,1.34,13.45,13.45,0,0,0,10.84.17,4.72,4.72,0,0,0,2.64-2.68,1.42,1.42,0,0,1,1.51-1.16,1.52,1.52,0,0,1,1.39,1.49v5.78c0,.07-.13.45-.13.54s-.12.38-.12.41a5.08,5.08,0,0,1-1.51,2.3,7.83,7.83,0,0,1-2.52,1.76,15.81,15.81,0,0,1-6.56,1.34A16,16,0,0,1,89.12,35.68Z"/><path class="cls-4" d="M74.25,14.19v5.18c.63,3.14,2.52,5,5,6.69a28,28,0,0,0,14,3.84,30.68,30.68,0,0,0,14.61-3,16.19,16.19,0,0,0,5.17-4.3,9.92,9.92,0,0,0,1.39-3.26V14.19a10.52,10.52,0,0,1-1.39,3.3,16.59,16.59,0,0,1-5.17,4.26,30.92,30.92,0,0,1-14.61,3,28,28,0,0,1-14-3.84C76.77,19.15,74.88,17.32,74.25,14.19Z"/><path class="cls-2" d="M112.68,20.08a18.85,18.85,0,0,1-4.28,3,30.48,30.48,0,0,1-15.12,3.13c-5.93-.21-10.59-1.46-14.75-4.05a14.54,14.54,0,0,1-2.52-2c.63,2.05,2.14,3.4,4,4.68a27.22,27.22,0,0,0,13.24,3.64,28.53,28.53,0,0,0,13.86-2.85,13.92,13.92,0,0,0,4.66-3.75,10.93,10.93,0,0,0,.88-1.76ZM93.28,31.37c-6-.26-10.59-1.51-14.75-4.06-2.39-1.63-5-3.75-5.79-7.94V14.19A1.41,1.41,0,0,1,74,12.73a1.36,1.36,0,0,1,1.63,1.16c.63,2.68,2.27,4.22,4.41,5.73a27,27,0,0,0,13.24,3.65,29,29,0,0,0,13.86-2.81,15.31,15.31,0,0,0,4.66-3.81,7.76,7.76,0,0,0,1.13-2.76,1.47,1.47,0,0,1,1.64-1.16,1.41,1.41,0,0,1,1.26,1.46v5.52a8.5,8.5,0,0,1-1.64,3.85,15.39,15.39,0,0,1-5.79,4.67,30.65,30.65,0,0,1-14.5,3.14Z"/><path class="cls-1" d="M108.52,4.87C100.71.31,87.86.31,80,4.87s-7.94,11.9,0,16.46,20.67,4.57,28.48,0S116.46,9.38,108.52,4.87Z"/><path class="cls-2" d="M108.52,4.87Zm-14.24-2A27.59,27.59,0,0,0,80.8,6.11c-3.4,1.93-5.17,4.39-5.17,7s1.77,5,5.17,7c7.43,4.31,19.53,4.31,27.09,0,3.28-1.93,5-4.39,5-6.95s-1.76-5.05-5-7h0A28.44,28.44,0,0,0,94.28,2.9Zm-15,19.68c-4.29-2.46-6.68-5.85-6.68-9.49S75,6,79.29,3.57c8.31-4.76,21.67-4.76,30,0h0C113.56,6,116,9.43,116,13.09s-2.39,7-6.67,9.49a30.22,30.22,0,0,1-15,3.6A30.2,30.2,0,0,1,79.29,22.58Z"/><path class="cls-4" d="M53.33,49.1A27.52,27.52,0,0,0,41.74,62.43c-2.65,5.72-4.16,12.83-4.16,21.19a90,90,0,0,0,4.16,25.87,117.09,117.09,0,0,0,11.59,26.67,123,123,0,0,0,17.26,23.36A90.84,90.84,0,0,0,91,176c7.18,4.14,14.11,6.47,20.28,7.1a27.2,27.2,0,0,0,29-16.67c2.64-5.77,4-12.88,4-21.24a90.41,90.41,0,0,0-4-25.87,128.92,128.92,0,0,0-11.6-26.63,123,123,0,0,0-17.39-23.37A89.58,89.58,0,0,0,91,52.85c-7.31-4.18-14.12-6.48-20.42-7.11A28.29,28.29,0,0,0,53.33,49.1ZM137,87.8c11.84,20.41,19.15,43.44,19.15,64.2s-7.31,35.37-19.15,42.19-28.1,5.81-46-4.6S56.73,161.41,44.89,141s-19-43.43-19-64.17,7.31-35.35,19-42.17S73,28.82,91,39.18s34.27,28.23,46,48.62Z"/><path class="cls-2" d="M67.19,47a25.58,25.58,0,0,0-13.1,3.35h0C49.3,53.1,45.65,57.37,43,63a51.15,51.15,0,0,0-3.91,20.61,89.35,89.35,0,0,0,4,25.45,122.69,122.69,0,0,0,11.46,26.34,115.61,115.61,0,0,0,17.14,23.08,88.1,88.1,0,0,0,19.91,16.18c6.93,4,13.61,6.3,19.91,6.93a27.22,27.22,0,0,0,16.38-3.21,26.32,26.32,0,0,0,11-12.62c2.64-5.74,3.9-12.63,3.9-20.62a89.33,89.33,0,0,0-4-25.41,122.83,122.83,0,0,0-11.34-26.38,126.22,126.22,0,0,0-17.13-23.07,91.31,91.31,0,0,0-20-16.18c-6.93-3.93-13.61-6.28-19.78-6.9A31.78,31.78,0,0,0,67.19,47ZM114.82,184.7c-1.13,0-2.39,0-3.65-.17-6.68-.67-13.61-3.09-20.92-7.31a93.92,93.92,0,0,1-20.79-16.68,126,126,0,0,1-17.52-23.67,129.15,129.15,0,0,1-11.72-26.95,95.39,95.39,0,0,1-4-26.3c0-8.36,1.38-15.71,4.15-21.82A28.7,28.7,0,0,1,70.72,44.25c6.68.66,13.73,3.13,20.92,7.3a93.69,93.69,0,0,1,20.79,16.69A125.52,125.52,0,0,1,129.94,91.9a130.07,130.07,0,0,1,11.72,27,95.14,95.14,0,0,1,4,26.29c0,8.4-1.38,15.72-4,21.82a31,31,0,0,1-12.22,14,29.22,29.22,0,0,1-14.62,3.73ZM137,87.8ZM61.9,31.74c8.69,0,18.27,2.93,28.35,8.74,17.14,9.91,33.39,27,45.49,48.07h0c12.22,21.06,18.9,43.59,18.9,63.45,0,19.54-6.55,34.08-18.4,40.89s-27.59,5.23-44.6-4.56-33.27-27-45.49-48.07S27.38,96.63,27.38,76.8c0-19.57,6.42-34.07,18.27-40.92A32.25,32.25,0,0,1,61.9,31.74ZM90.25,190.89c-17.64-10.17-34.15-27.63-46.62-49.17S24.35,97.12,24.35,76.8c0-20.64,7.06-36.07,19.78-43.47s29.74-5.77,47.51,4.56,34.27,27.62,46.62,49.16h0c12.47,21.52,19.28,44.6,19.28,65,0,20.66-6.93,36.08-19.79,43.44A34.77,34.77,0,0,1,120.11,200C110.92,200,100.71,197,90.25,190.89Z"/><path class="cls-2" d="M96.3,123.79a1.85,1.85,0,0,0,.76-.21,1.61,1.61,0,0,0,.5-2l-35.79-62A1.51,1.51,0,0,0,59.13,61L95,123A1.46,1.46,0,0,0,96.3,123.79Z"/><path class="cls-2" d="M92.9,165.6a1.48,1.48,0,0,0,1.51-1.51v-11a1.44,1.44,0,0,0-1.51-1.46,1.42,1.42,0,0,0-1.39,1.46v11A1.45,1.45,0,0,0,92.9,165.6Z"/><path class="cls-2" d="M58.62,95.15a1.48,1.48,0,0,0,1.39-.7,1.53,1.53,0,0,0-.63-2L49.8,86.89a1.46,1.46,0,1,0-1.38,2.58L58,95A1,1,0,0,0,58.62,95.15Z"/><path class="cls-2" d="M92.9,75.38a1.47,1.47,0,0,0,1.51-1.46v-11a1.48,1.48,0,0,0-1.51-1.51,1.45,1.45,0,0,0-1.39,1.51v11A1.44,1.44,0,0,0,92.9,75.38Z"/><path class="cls-2" d="M136.75,140.26a1.39,1.39,0,0,0,1.26-.76,1.34,1.34,0,0,0-.51-2L127.93,132a1.49,1.49,0,0,0-2,.54,1.55,1.55,0,0,0,.51,2l9.57,5.52A1.36,1.36,0,0,0,136.75,140.26Z"/><path class="cls-4" d="M94.41,112.43a10.2,10.2,0,0,0-3.4-3.65,3.47,3.47,0,0,0-3.53-.32,3.35,3.35,0,0,0-1.39,3.12A10.34,10.34,0,0,0,91,120a3.37,3.37,0,0,0,3.4.34c.88-.5,1.39-1.58,1.39-3.17A9.67,9.67,0,0,0,94.41,112.43Z"/><path class="cls-2" d="M93.15,113.13h0a8.92,8.92,0,0,0-2.9-3.08,2.19,2.19,0,0,0-2-.35,2.36,2.36,0,0,0-.63,1.88,7.56,7.56,0,0,0,1.27,4.06,8.82,8.82,0,0,0,2.77,3.1c.88.45,1.64.58,2,.32s.76-1,.76-1.87a9.13,9.13,0,0,0-1.26-4.06Zm-2.9,8.15a12.1,12.1,0,0,1-4-4.18,11.65,11.65,0,0,1-1.64-5.52,4.92,4.92,0,0,1,2.27-4.42,4.64,4.64,0,0,1,4.79.33,10.49,10.49,0,0,1,4,4.18h0a10.47,10.47,0,0,1,1.64,5.52,4.94,4.94,0,0,1-2.14,4.47,4.1,4.1,0,0,1-2,.51A6,6,0,0,1,90.25,121.28Z"/></g></svg>