<svg xmlns="http://www.w3.org/2000/svg" width="200" height="200" viewBox="0 0 200 200"><defs><style>.cls-1{fill:#f4ffc8;}.cls-1,.cls-2,.cls-3,.cls-4{fill-rule:evenodd;}.cls-3{fill:#fff;}.cls-4{fill:#b2ca80;}</style></defs><g id="Layer_3" data-name="Layer 3"><path class="cls-1" d="M142.55,198.17l7.4-4.27c1.51-1.05,1.77-2.34,1.85-4.09V61.57A13,13,0,0,0,150,55.34a13.22,13.22,0,0,0-4.47-4.72L132,42.81l-8.07-4.64L83.49,14.83l-7-4.06L61.9,2.37c-1.55-.8-2.8-1.22-4.46-.43L50,6.22c1.65-.8,2.92-.38,4.47.42l14.55,8.41,7,4.06L116.5,42.44l8.06,4.64,13.53,7.82a14,14,0,0,1,6.32,10.94V194.08C144.32,195.83,144.05,197.12,142.55,198.17Z"/><path class="cls-2" d="M59.14,2.91a2.21,2.21,0,0,0-1,.25l-3.47,2,.54.26,83.63,48.3A14.32,14.32,0,0,1,143.78,59a14.6,14.6,0,0,1,2,6.89V194.15a4.41,4.41,0,0,1,0,.52l3.37-1.93c.89-.63,1.17-1.27,1.24-2.93V61.63a12.58,12.58,0,0,0-5.61-9.78L61.26,3.63a4.89,4.89,0,0,0-2.12-.72Zm82.22,196a1.4,1.4,0,0,1,.39-1.9c.91-.63,1.16-1.27,1.24-2.93L143,65.9a11.77,11.77,0,0,0-1.66-5.54,11.52,11.52,0,0,0-4-4.24L53.86,7.89c-1.53-.79-2.22-.89-3.22-.41A1.4,1.4,0,0,1,49.35,5L56.84.67c2.32-1.1,4.16-.34,5.77.48l83.63,48.29a15.5,15.5,0,0,1,7,12.13v128.3a6,6,0,0,1-2.56,5.24l-7.4,4.27a1.37,1.37,0,0,1-.7.19A1.42,1.42,0,0,1,141.36,198.91Z"/><path class="cls-1" d="M54.51,149.47l83.58,48.25c3.48,2,6.32.38,6.32-3.64V65.84a14,14,0,0,0-6.32-10.94l-13.53-7.82-8.06-4.64L76.09,19.11l-7-4.06L54.51,6.64c-3.48-2-6.31-.36-6.31,3.66V138.54A14,14,0,0,0,54.51,149.47Z"/><path class="cls-2" d="M54.51,149.47h0ZM51.69,7.2a1.89,1.89,0,0,0-.94.22A3.2,3.2,0,0,0,49.6,10.3V138.54a12.63,12.63,0,0,0,5.61,9.72l83.58,48.26a2.5,2.5,0,0,0,4.2-2.44V65.84a12.63,12.63,0,0,0-5.61-9.72L53.8,7.87a4.29,4.29,0,0,0-2.11-.67ZM137.38,199,53.8,150.69h0a15.29,15.29,0,0,1-7-12.15V10.3c0-2.48.92-4.36,2.57-5.31s3.72-.8,5.86.43l83.58,48.26a15.3,15.3,0,0,1,7,12.16V194.08c0,2.47-.91,4.35-2.57,5.31a4.76,4.76,0,0,1-2.35.61A7.13,7.13,0,0,1,137.38,199Z"/><path class="cls-3" d="M132.84,64v122.1L56.78,142.14V20Z"/><path class="cls-2" d="M131.43,64.77,58.19,22.48V141.33l73.24,42.28V64.77Zm.71,122.49L56.08,143.35a1.37,1.37,0,0,1-.7-1.21V20a1.4,1.4,0,0,1,2.1-1.22l76.06,43.92a1.37,1.37,0,0,1,.7,1.21v122.1a1.36,1.36,0,0,1-.7,1.21,1.38,1.38,0,0,1-.7.2A1.32,1.32,0,0,1,132.14,187.26Z"/><path class="cls-3" d="M106.25,54.11,78.3,38V25.45l28,16.14V54.11ZM74.17,39.65l36.2,20.91V39.9L74.17,19V39.65Z"/><path class="cls-2" d="M104.83,42.4,79.7,27.89v9.27l25.13,14.51V42.4Zm1.42,13.11a1.38,1.38,0,0,1-.71-.19L77.6,39.19A1.4,1.4,0,0,1,76.89,38V25.45A1.41,1.41,0,0,1,79,24.24l28,16.14a1.38,1.38,0,0,1,.69,1.21V54.11a1.39,1.39,0,0,1-.69,1.21,1.42,1.42,0,0,1-.7.19ZM74.17,39.65h0ZM109,40.71V58.12L75.57,38.84V21.44L109,40.71Zm.71,21.06L73.46,40.87a1.39,1.39,0,0,1-.7-1.22V19a1.42,1.42,0,0,1,.7-1.21,1.44,1.44,0,0,1,1.42,0l36.19,20.9a1.38,1.38,0,0,1,.7,1.21V60.56a1.41,1.41,0,0,1-1.4,1.4A1.32,1.32,0,0,1,109.67,61.77Z"/><polygon class="cls-3" points="110.37 39.9 74.17 19 79.13 16.14 82.1 14.42 118.29 35.33 110.37 39.9"/><path class="cls-2" d="M115.47,35.33,82.1,16.05,77,19l33.38,19.29,5.1-3Zm-5.8,5.79L73.46,20.22a1.42,1.42,0,0,1-.7-1.22,1.44,1.44,0,0,1,.7-1.22l7.93-4.57a1.4,1.4,0,0,1,1.41,0L119,34.1a1.41,1.41,0,0,1,0,2.45l-7.92,4.57a1.37,1.37,0,0,1-.7.19A1.32,1.32,0,0,1,109.67,41.12Z"/><path class="cls-1" d="M69.12,101h0a6,6,0,0,1-2.72-4.7h0c0-1.73,1.23-2.43,2.72-1.57h0a6,6,0,0,1,2.71,4.71h0C71.83,101.1,70.62,101.82,69.12,101Z"/><path class="cls-2" d="M70.3,99.93s.13-.19.13-.53a4.64,4.64,0,0,0-2-3.49,2.85,2.85,0,0,0-.49-.2,1.14,1.14,0,0,0-.1.55,4.69,4.69,0,0,0,2,3.48,1.6,1.6,0,0,0,.49.19Zm-.49-6.45a7.41,7.41,0,0,1,3.43,5.92,3,3,0,0,1-4.83,2.77A7.44,7.44,0,0,1,65,96.26a3.26,3.26,0,0,1,1.5-3,2.74,2.74,0,0,1,1.4-.37A3.81,3.81,0,0,1,69.81,93.48Z"/><path class="cls-1" d="M69.12,84.13h0a6.05,6.05,0,0,1-2.72-4.71h0c0-1.72,1.23-2.42,2.72-1.56h0a6,6,0,0,1,2.71,4.69h0C71.83,84.27,70.62,85,69.12,84.13Z"/><path class="cls-2" d="M69.81,82.91h0a1.6,1.6,0,0,0,.49.19s.13-.19.13-.55a4.62,4.62,0,0,0-2-3.47,1.54,1.54,0,0,0-.49-.21,1.18,1.18,0,0,0-.1.55,4.71,4.71,0,0,0,2,3.49Zm0-6.26a7.41,7.41,0,0,1,3.43,5.9,3,3,0,0,1-4.83,2.79h0A7.46,7.46,0,0,1,65,79.42a3.25,3.25,0,0,1,1.5-3,2.68,2.68,0,0,1,1.4-.38A3.82,3.82,0,0,1,69.81,76.65Z"/><path class="cls-1" d="M69.12,66.23h0a6,6,0,0,1-2.72-4.69h0c0-1.72,1.23-2.43,2.72-1.57h0a6,6,0,0,1,2.71,4.71h0C71.83,66.39,70.62,67.11,69.12,66.23Z"/><path class="cls-2" d="M70.3,65.22a.83.83,0,0,0,.13-.54,4.64,4.64,0,0,0-2-3.49,1.64,1.64,0,0,0-.49-.2,1.18,1.18,0,0,0-.1.55,4.69,4.69,0,0,0,2,3.48,2.56,2.56,0,0,0,.49.2Zm-.49-6.46a7.41,7.41,0,0,1,3.43,5.92,3,3,0,0,1-4.83,2.78A7.47,7.47,0,0,1,65,61.54a3.26,3.26,0,0,1,1.5-3,2.74,2.74,0,0,1,1.4-.37A3.81,3.81,0,0,1,69.81,58.76Z"/><path class="cls-4" d="M142.55,198.17l7.4-4.27a4,4,0,0,0,1.29-1.42c.71-1.34.56-3.4.56-4.89V65a22.11,22.11,0,0,0-.56-6.73,13,13,0,0,0-1.31-2.95l-7.4,4.27a13.29,13.29,0,0,1,1.53,3.79,20.84,20.84,0,0,1,.33,5.05V191.61a19.16,19.16,0,0,1-.18,4.08A3.79,3.79,0,0,1,142.55,198.17Z"/><path class="cls-2" d="M149.36,57.26l-5,2.86a13.94,13.94,0,0,1,1,2.93,19.62,19.62,0,0,1,.37,4.69V192.4c0,.72,0,1.5,0,2.27l3.37-1.93a2.62,2.62,0,0,0,.85-.92,8.57,8.57,0,0,0,.4-3.55V64a16.71,16.71,0,0,0-.51-5.29,10.78,10.78,0,0,0-.53-1.41Zm-8,141.65a1.4,1.4,0,0,1,.4-1.9,2.47,2.47,0,0,0,1.1-1.63,14.51,14.51,0,0,0,.16-2.95l0-101.11V67.73a16,16,0,0,0-.3-4,11.64,11.64,0,0,0-1.36-3.38,1.36,1.36,0,0,1-.17-1.08,1.45,1.45,0,0,1,.66-.87l7.4-4.26a1.4,1.4,0,0,1,1.9.48,13.28,13.28,0,0,1,1.46,3.28,19.56,19.56,0,0,1,.64,6.12V188.23a10.54,10.54,0,0,1-.73,4.91,5.57,5.57,0,0,1-1.84,2l-7.41,4.28a1.39,1.39,0,0,1-.69.18A1.45,1.45,0,0,1,141.35,198.91Z"/><polygon class="cls-1" points="118.29 39.4 114.77 41.43 114.77 58.02 110.37 60.56 110.37 39.9 118.29 35.33 118.29 39.4"/><path class="cls-2" d="M113.35,57.21V41.43a1.41,1.41,0,0,1,.71-1.21l2.83-1.64v-.81l-5.12,2.94V58.12l1.58-.91Zm-3.68,4.56a1.36,1.36,0,0,1-.71-1.21V39.9a1.37,1.37,0,0,1,.71-1.21l7.92-4.59a1.45,1.45,0,0,1,1.4,0,1.4,1.4,0,0,1,.71,1.23V39.4a1.39,1.39,0,0,1-.71,1.22l-2.81,1.62V58a1.37,1.37,0,0,1-.71,1.21l-4.4,2.53a1.37,1.37,0,0,1-.7.19A1.32,1.32,0,0,1,109.67,61.77Z"/><path class="cls-2" d="M79.7,101.63a1.38,1.38,0,0,0-1.22.71,1.43,1.43,0,0,0,.52,1.93l44.07,25.44a1.41,1.41,0,0,0,1.4-2.44L80.4,101.82A1.47,1.47,0,0,0,79.7,101.63Z"/><path class="cls-2" d="M79.7,83.76a1.38,1.38,0,0,0-1.22.69A1.42,1.42,0,0,0,79,86.38l44.07,25.45a1.41,1.41,0,0,0,1.4-2.44L80.4,83.94A1.46,1.46,0,0,0,79.7,83.76Z"/><path class="cls-2" d="M79.7,66.92a1.39,1.39,0,0,0-1.22.7A1.43,1.43,0,0,0,79,69.55l31.41,18.14a1.41,1.41,0,0,0,1.41-2.45L80.4,67.11A1.37,1.37,0,0,0,79.7,66.92Z"/><polygon class="cls-3" points="82.7 28 82.7 35 78.3 37.97 78.3 25.45 82.7 28"/><path class="cls-2" d="M81.28,34.25V28.81l-1.58-.92v7.44l1.58-1.08Zm-3.64,5A1.43,1.43,0,0,1,76.89,38V25.45a1.4,1.4,0,0,1,.71-1.21,1.42,1.42,0,0,1,1.41,0l4.39,2.54A1.43,1.43,0,0,1,84.11,28v7a1.42,1.42,0,0,1-.64,1.17l-4.39,3a1.33,1.33,0,0,1-.78.26A1.44,1.44,0,0,1,77.64,39.22Z"/><polygon class="cls-3" points="106.25 48.59 82.7 35 78.3 37.97 106.25 54.11 106.25 48.59"/><path class="cls-2" d="M104.83,49.41,82.76,36.66,81,37.88l23.88,13.79V49.41Zm.71,5.91L77.6,39.19A1.45,1.45,0,0,1,76.89,38a1.42,1.42,0,0,1,.62-1.21l4.4-3a1.41,1.41,0,0,1,1.48,0L107,47.37a1.41,1.41,0,0,1,.69,1.22v5.52a1.39,1.39,0,0,1-.69,1.21,1.42,1.42,0,0,1-.7.19A1.38,1.38,0,0,1,105.54,55.32Z"/></g></svg>