<svg xmlns="http://www.w3.org/2000/svg" width="200" height="200" viewBox="0 0 200 200"><defs><style>.cls-1,.cls-5{fill:#a2cfb6;}.cls-1,.cls-2,.cls-3,.cls-4{fill-rule:evenodd;}.cls-3{fill:#fff;}.cls-4{fill:#5bae84;}</style></defs><g id="Layer_3" data-name="Layer 3"><path class="cls-1" d="M137.74,168.94c8.28,4.74,15.74,5.21,21.16,2.06h0l30.84-17.8a14.52,14.52,0,0,0,4.41-4c4.87-6.41,4.95-16.11,3.57-23.7-2.64-14.62-11.8-30.23-23.34-39.5L173,85c-.2-1.68-.42-3.22-.67-4.87-4.16-23.7-20.65-50.24-41.63-62.44-8.28-4.79-19-8-28.16-4l-.93.43-6.37,3.7c-5.76-5.13-13.64-10-21.54-9.84A16.68,16.68,0,0,0,68,9.08l-.85.38L53.77,17.22l-1.43-.29a17.2,17.2,0,0,0-9.32.79l-1,.47L11.12,36c-5.86,2.9-9.59,9.77-9.56,19.85,0,19,13.39,42.25,29.92,51.79Z"/><path class="cls-2" d="M137.74,168.94h0ZM111.68,13.28A21.21,21.21,0,0,0,103.21,15L96,19.08a1.49,1.49,0,0,1-1.74-.18c-4-3.57-12-9.48-20.23-9.48a.68.68,0,0,0-.29,0,14.44,14.44,0,0,0-5.12,1L54.48,18.48a1.23,1.23,0,0,1-1,.17l-1.39-.26a15.63,15.63,0,0,0-8.48.69L11.79,37.33C6.22,40.05,3,46.82,3,55.84,3,74.38,16.12,97.06,32.2,106.32l106.27,61.31c7.5,4.33,14.51,5.09,19.72,2.06L189,151.91a13.31,13.31,0,0,0,4-3.57c5.37-7.1,4.07-18.14,3.27-22.58-2.6-14.4-11.55-29.55-22.8-38.57l-1.33-1a1.52,1.52,0,0,1-.55-1c-.21-1.64-.42-3.14-.67-4.79C166.57,55.67,149.79,30.4,130,18.9c-4.12-2.39-11-5.62-18.3-5.62ZM137,170.2h0L30.73,108.92C13.81,99.14.05,75.35.05,55.84c0-10.2,3.81-17.92,10.37-21.15l31-17.89,1-.46a19.21,19.21,0,0,1,10.2-.88l.89.18,13-7.57.93-.38a18,18,0,0,1,6.21-1.21C82.44,6.4,90.86,12.07,95.44,16L101,12.73l1-.46c11.16-4.87,23.26.46,29.51,4.07,20.48,11.92,37.88,38,42.34,63.5.25,1.47.41,2.86.59,4.32l.87.68c11.76,9.48,21.15,25.3,23.89,40.36.83,4.84,2.22,16.93-3.82,24.94a16.58,16.58,0,0,1-4.87,4.32L159.65,172.3a17,17,0,0,1-8.56,2.21C146.72,174.51,141.94,173.05,137,170.2Z"/><path class="cls-3" d="M137.74,168.94c16.5,9.53,29.89,1.77,29.89-17.34,0-17.32-11-38-25.43-48.84C139.5,77,121.59,48,99.89,35.43c-14.39-8.29-27.1-7.38-34.83.72a48.49,48.49,0,0,0-8.48-6.3c-13.13-7.59-24.3-4.23-28.33,7-15-6.79-26.72,1.14-26.69,19,0,19,13.39,42.25,29.92,51.79Z"/><path class="cls-2" d="M137.74,168.94h0ZM80.88,31.16a19.57,19.57,0,0,0-14.72,6.05,1.53,1.53,0,0,1-2.11.07,47.36,47.36,0,0,0-8.22-6.16c-6.51-3.74-12.81-4.8-17.67-3-3.91,1.46-6.84,4.65-8.53,9.27a1.49,1.49,0,0,1-.8.89,1.36,1.36,0,0,1-1.21-.06c-6.54-3-12.64-3-17.13-.16C5.67,41.14,3,47.49,3,55.84,3,74.38,16.12,97.06,32.2,106.32l106.27,61.31c7.5,4.33,14.47,5.09,19.67,2.1s8-9.43,8-18.13c0-16.53-10.7-37-24.89-47.62a1.81,1.81,0,0,1-.59-1.06c-2.65-25.6-20.52-54-41.55-66.18C92.67,33,86.42,31.16,80.88,31.16ZM137,170.2h0L30.73,108.92C13.81,99.14.05,75.35.05,55.84c0-9.41,3.14-16.62,8.86-20.32,5-3.18,11.54-3.4,18.5-.63a17,17,0,0,1,9.7-9.56c5.74-2.1,12.93-1,20.19,3.22A48.92,48.92,0,0,1,65,34.15c8.56-8,21.73-8,35.58,0,21.62,12.45,40,41.54,43,67.81,14.81,11.41,25.57,32.19,25.57,49.64,0,9.83-3.41,17.17-9.54,20.7a16.7,16.7,0,0,1-8.52,2.21C146.72,174.51,141.94,173.05,137,170.2Z"/><path class="cls-2" d="M142.2,104.26a1.39,1.39,0,0,0,.7-.2l30.85-17.8a1.52,1.52,0,0,0,.56-2.06,1.47,1.47,0,0,0-2-.54L141.44,101.5a1.45,1.45,0,0,0-.55,2A1.47,1.47,0,0,0,142.2,104.26Z"/><path class="cls-2" d="M64.64,37a1.7,1.7,0,0,0,.76-.21L96,19.08A1.57,1.57,0,0,0,96.58,17a1.54,1.54,0,0,0-2.06-.55L63.93,34.18a1.46,1.46,0,0,0-.56,2A1.48,1.48,0,0,0,64.64,37Z"/><path class="cls-2" d="M36.26,28.8a1.5,1.5,0,0,0,.72-.2l17.5-10.12A1.47,1.47,0,1,0,53,15.93L35.52,26a1.48,1.48,0,0,0,.74,2.77Z"/><polygon class="cls-4" points="50.64 123.52 64.99 115.23 73.11 116.92 58.76 125.21 50.64 123.52"/><path class="cls-2" d="M71.11,117.24l-6-1.25-12.47,7.2,6,1.25,12.47-7.2Zm-12.5,8.68-8.12-1.7a.74.74,0,0,1-.57-.59.73.73,0,0,1,.35-.74l14.36-8.29a.75.75,0,0,1,.51-.08l8.11,1.7a.71.71,0,0,1,.57.59.72.72,0,0,1-.35.74l-14.35,8.29a.77.77,0,0,1-.36.09Z"/><polygon class="cls-4" points="64.37 105.8 78.73 97.51 86.3 106.39 71.95 114.68 64.37 105.8"/><path class="cls-2" d="M85.18,106.2l-6.61-7.76L65.49,106l6.61,7.76,13.08-7.55Zm-13.78,9-7.57-8.88a.71.71,0,0,1,.19-1.1l14.35-8.28a.7.7,0,0,1,.9.16l7.58,8.87a.73.73,0,0,1,.16.6.7.7,0,0,1-.35.5L72.31,115.3a.68.68,0,0,1-.36.1A.7.7,0,0,1,71.4,115.15Z"/><polygon class="cls-4" points="71.95 114.68 86.3 106.39 90.61 106.83 76.25 115.11 71.95 114.68"/><path class="cls-2" d="M88.29,107.32l-1.83-.18-12.2,7,1.83.18,12.2-7Zm-12.11,8.51-4.3-.43a.72.72,0,0,1-.64-.57.73.73,0,0,1,.35-.78l14.35-8.28a.71.71,0,0,1,.43-.1l4.31.43a.72.72,0,0,1,.63.57.7.7,0,0,1-.34.77l-14.35,8.3a.81.81,0,0,1-.37.09Z"/><polygon class="cls-1" points="78.84 107.23 93.2 98.95 104.17 105.27 89.81 113.56 78.84 107.23"/><path class="cls-2" d="M102.71,105.27,93.2,99.78l-12.91,7.45,9.52,5.5,12.9-7.46Zm-13.25,8.92-11-6.34a.71.71,0,0,1-.37-.62.72.72,0,0,1,.37-.63l14.35-8.28a.69.69,0,0,1,.71,0l11,6.32a.73.73,0,0,1,0,1.26l-14.35,8.29a.74.74,0,0,1-.36.09A.7.7,0,0,1,89.46,114.19Z"/><polygon class="cls-4" points="89.81 113.56 104.17 105.27 106.75 116.14 92.4 124.43 89.81 113.56"/><path class="cls-2" d="M105.93,115.79l-2.24-9.41-13,7.54,2.24,9.4,13.05-7.53ZM92.11,125.1a.76.76,0,0,1-.41-.5l-2.59-10.88a.7.7,0,0,1,.35-.78l14.34-8.3a.74.74,0,0,1,.65,0,.75.75,0,0,1,.42.5L107.46,116a.7.7,0,0,1-.34.79l-14.35,8.29a.81.81,0,0,1-.37.09A1,1,0,0,1,92.11,125.1Z"/><polygon class="cls-1" points="92.4 124.43 106.75 116.14 111.06 120.69 96.71 128.97 92.4 124.43"/><path class="cls-2" d="M109.91,120.53l-3.28-3.47L93.56,124.6l3.29,3.46,13.06-7.53Zm-13.73,8.94-4.3-4.55a.71.71,0,0,1,.16-1.11l14.35-8.29a.72.72,0,0,1,.89.13l4.31,4.55a.72.72,0,0,1-.17,1.12L97.08,129.6a.71.71,0,0,1-.37.1A.72.72,0,0,1,96.18,129.47Z"/><polygon class="cls-4" points="96.71 128.97 111.06 120.69 118.64 120.56 104.28 128.84 96.71 128.97"/><path class="cls-2" d="M104.08,128.12l11.76-6.79-4.58.08L99.5,128.2l4.58-.08Zm-8.07,1a.73.73,0,0,1,.34-.82l14.35-8.28a.7.7,0,0,1,.34-.1l7.58-.14h0a.72.72,0,0,1,.69.53.71.71,0,0,1-.34.82l-14.35,8.28a.68.68,0,0,1-.34.11l-7.58.13h0A.72.72,0,0,1,96,129.17Z"/><rect class="cls-5" x="107.04" y="123.66" width="16.58" height="15.48" transform="translate(-50.23 75.23) rotate(-29.99)"/><path class="cls-2" d="M125.39,133.7l-7-12.16-13.1,7.56,7,12.16,13.1-7.56ZM111.83,143a.76.76,0,0,1-.43-.34l-7.74-13.41a.73.73,0,0,1,.26-1l14.35-8.28a.67.67,0,0,1,.55-.07.69.69,0,0,1,.44.33L127,133.6a.72.72,0,0,1-.27,1l-14.35,8.28a.65.65,0,0,1-.36.1Z"/><polygon class="cls-4" points="112.02 142.24 126.38 133.96 122.46 140.45 124.25 146.45 109.9 154.73 108.11 148.73 112.02 142.24"/><path class="cls-2" d="M123.4,146.11l-1.63-5.46a.7.7,0,0,1,.08-.58l2.46-4.08-11.76,6.79-3.65,6.06,1.43,4.81,13.07-7.54Zm-13.76,9.29a.7.7,0,0,1-.43-.46l-1.79-6a.78.78,0,0,1,.08-.58l3.9-6.49a.78.78,0,0,1,.26-.25L126,133.33a.72.72,0,0,1,1,1l-3.74,6.2,1.69,5.7a.73.73,0,0,1-.33.84l-14.35,8.28a.75.75,0,0,1-.36.1A.58.58,0,0,1,109.64,155.4Z"/><polygon class="cls-1" points="109.9 154.73 124.25 146.45 132.37 154.13 118.02 162.42 109.9 154.73"/><path class="cls-2" d="M131.17,154l-7-6.64-13,7.52,7,6.65,13-7.53Zm-13.64,8.95-8.13-7.68a.75.75,0,0,1,.14-1.16l14.35-8.27a.72.72,0,0,1,.86.09l8.12,7.69a.72.72,0,0,1-.14,1.15L118.38,163a.68.68,0,0,1-.36.1A.7.7,0,0,1,117.53,162.94Z"/><path class="cls-4" d="M118,162.42l14.35-8.29V166.8l-8.88,5.12,2.89,8.12L112,188.33l-3.9-11,1.78-4,8.12-4.69Z"/><path class="cls-2" d="M125.49,179.72l-2.68-7.56a.73.73,0,0,1,.32-.87l8.52-4.91v-11l-12.91,7.44v5.86a.71.71,0,0,1-.36.63l-7.92,4.58-1.56,3.46,3.51,9.91,13.08-7.55ZM111.77,189a.7.7,0,0,1-.43-.43l-3.91-11a.72.72,0,0,1,0-.54l1.78-3.94a.69.69,0,0,1,.3-.33l7.76-4.48v-5.86a.73.73,0,0,1,.35-.63L132,153.51a.7.7,0,0,1,.71,0,.71.71,0,0,1,.37.62V166.8a.71.71,0,0,1-.37.62l-8.35,4.83,2.67,7.55a.71.71,0,0,1-.32.87L112.38,189a.87.87,0,0,1-.36.09A.74.74,0,0,1,111.77,189Z"/><polygon class="cls-4" points="92.4 183.49 106.75 175.2 104.17 183.08 89.81 191.37 92.4 183.49"/><path class="cls-2" d="M103.56,182.6l1.92-5.83L93,184l-1.92,5.81,12.47-7.19Zm-14.2,9.33a.7.7,0,0,1-.23-.79l2.58-7.88a.77.77,0,0,1,.33-.4l14.35-8.28a.71.71,0,0,1,.82.06.72.72,0,0,1,.24.79l-2.6,7.88a.67.67,0,0,1-.33.39L90.17,192a.65.65,0,0,1-.36.1A.69.69,0,0,1,89.36,191.93Z"/><path class="cls-4" d="M89.23,157.78l14.35-8.29a3.81,3.81,0,0,1-2.61.39c-3.16-.55-6-3.78-7.43-6.48-1.36-2.52-2.49-6.36-1.28-9.11a3.68,3.68,0,0,1,1.52-1.76l-14.35,8.28c-2.66,1.61-2.2,5.71-1.39,8.23,1.14,3.49,4,7.61,7.61,8.87a4.39,4.39,0,0,0,3.32,0Z"/><path class="cls-2" d="M88.88,157.15l11.51-6.65c-3.27-.81-6-4.1-7.49-6.76s-2.42-6.09-1.59-9L79.8,141.43c-2.14,1.3-1.92,4.79-1.07,7.38,1.08,3.31,3.89,7.27,7.16,8.42a3.76,3.76,0,0,0,2.75.05l.24-.13Zm-3.47,1.45c-3.89-1.38-6.9-5.81-8.06-9.34-1-3.24-1.17-7.33,1.72-9.08l14.35-8.28a.72.72,0,0,1,.75,1.24,3,3,0,0,0-1.25,1.44c-1.1,2.5,0,6.13,1.25,8.48,1.46,2.69,4.16,5.63,6.92,6.11a3.17,3.17,0,0,0,2.15-.31.72.72,0,0,1,.7,1.26l-14.35,8.29,0,0-.29.14a4.24,4.24,0,0,1-1.83.4A6.28,6.28,0,0,1,85.41,158.6Z"/><path class="cls-1" d="M79.43,152.13c-2.7-4.69-2.7-9.76,0-11.32s7.09,1,9.8,5.66,2.7,9.75,0,11.31-7.09-1-9.8-5.65Zm-18.89-2.27-3.9,6.48,7.73,13.42,7.58-.14,4.3,4.54L78.84,185q5.49,3.16,11,6.34l2.59-7.88,4.31.42,7.57,8.88,7.74-4.46-3.9-11,1.78-4,8.12,1.69V162.42l-8.12-7.69-1.78-6,3.9-6.49q-3.85-6.7-7.74-13.4l-7.57.13-4.31-4.54-2.59-10.87-11-6.33-2.59,7.88-4.3-.43-7.58-8.88-7.73,4.46,3.9,11-1.78,3.95-8.12-1.69v12.66l8.12,7.68,1.78,6Z"/><path class="cls-2" d="M81.24,141.07a2.82,2.82,0,0,0-1.45.37c-2.31,1.33-2.19,6.07.27,10.33h0a13.39,13.39,0,0,0,4.63,4.9c1.62.93,3.1,1.1,4.17.49s1.67-2,1.67-3.87A14.59,14.59,0,0,0,84,141.92a5.58,5.58,0,0,0-2.72-.85ZM87.42,159A7,7,0,0,1,84,157.92a14.78,14.78,0,0,1-5.15-5.43h0c-3-5.11-2.84-10.52.26-12.31,1.54-.88,3.54-.71,5.62.49A16,16,0,0,1,92,153.29c0,2.42-.85,4.23-2.39,5.12a4.33,4.33,0,0,1-2.17.56Zm23.72,29-6.7,3.87-7.18-8.42a.7.7,0,0,0-.48-.26l-4.3-.42a.71.71,0,0,0-.77.49l-2.3,7-9.93-5.73L77,174a.78.78,0,0,0-.18-.32l-4.31-4.55a.67.67,0,0,0-.54-.23l-7.14.13-7.32-12.66,3.69-6.13a.69.69,0,0,0,.07-.58l-1.78-6a.58.58,0,0,0-.2-.31l-7.89-7.48V124.41l7.25,1.51a.71.71,0,0,0,.81-.41l1.78-4a.72.72,0,0,0,0-.54l-3.7-10.43,6.69-3.86,7.19,8.42a.73.73,0,0,0,.48.25l4.3.43a.71.71,0,0,0,.76-.5l2.32-7L89.18,114,91.7,124.6a.64.64,0,0,0,.18.32l4.3,4.55a.72.72,0,0,0,.53.23h0l7.15-.13,7.31,12.67-3.68,6.12a.78.78,0,0,0-.08.58l1.79,6a.61.61,0,0,0,.19.32l7.9,7.47v11.46l-7.25-1.51a.71.71,0,0,0-.81.41L107.46,177a.72.72,0,0,0,0,.54L111.14,188Zm-7.41,5.27-7.38-8.67-3.44-.34-2.41,7.33a.74.74,0,0,1-.43.45.69.69,0,0,1-.61,0l-11-6.33a.74.74,0,0,1-.35-.46l-2.55-10.68-4-4.17-7.25.13a.62.62,0,0,1-.64-.36L56,156.71a.71.71,0,0,1,0-.73l3.74-6.22-1.64-5.51-8-7.55a.75.75,0,0,1-.23-.52V123.52a.71.71,0,0,1,.27-.56.66.66,0,0,1,.6-.15l7.56,1.57,1.42-3.15L56,110.51a.74.74,0,0,1,.32-.87L64,105.17a.72.72,0,0,1,.91.16L72.31,114l3.44.34L78.16,107a.74.74,0,0,1,.43-.45.71.71,0,0,1,.62,0l11,6.34a.69.69,0,0,1,.35.45l2.54,10.69,4,4.17,7.25-.14h0a.72.72,0,0,1,.63.37l7.74,13.4a.75.75,0,0,1,0,.74l-3.75,6.22,1.64,5.51,8,7.54a.75.75,0,0,1,.22.53v12.65a.68.68,0,0,1-.27.57.73.73,0,0,1-.6.15l-7.55-1.58-1.42,3.15,3.8,10.73a.73.73,0,0,1-.32.87l-7.74,4.46a.75.75,0,0,1-.36.1A.76.76,0,0,1,103.73,193.27Z"/><path class="cls-3" d="M79.43,152.13c-2.7-4.69-2.7-9.76,0-11.32s7.09,1,9.8,5.66,2.7,9.75,0,11.31-7.09-1-9.8-5.65Zm-8.8,5.08C78.2,170.31,90.46,177.4,98,173s7.56-18.54,0-31.64S78.2,121.2,70.63,125.57s-7.57,18.53,0,31.64Z"/><path class="cls-2" d="M81.24,141.07a2.82,2.82,0,0,0-1.45.37c-2.31,1.33-2.19,6.07.27,10.33h0a13.39,13.39,0,0,0,4.63,4.9c1.62.93,3.1,1.1,4.17.49s1.67-2,1.67-3.87A14.59,14.59,0,0,0,84,141.92a5.58,5.58,0,0,0-2.72-.85ZM87.42,159A7,7,0,0,1,84,157.92a14.78,14.78,0,0,1-5.15-5.43h0c-3-5.11-2.84-10.52.26-12.31,1.54-.88,3.54-.71,5.62.49A16,16,0,0,1,92,153.29c0,2.42-.85,4.23-2.39,5.12a4.33,4.33,0,0,1-2.17.56ZM75.7,125c7,0,15.79,6.52,21.7,16.76,7.36,12.74,7.47,26.49.26,30.65s-19-2.82-26.4-15.56h0c-3.6-6.23-5.58-12.88-5.58-18.73s1.89-9.94,5.31-11.91A9.26,9.26,0,0,1,75.7,125ZM70,157.57h0c-3.73-6.44-5.78-13.36-5.78-19.46s2.14-10.92,6-13.17c7.89-4.56,20.63,2.66,28.39,16.09s7.63,28.06-.27,32.62A10.52,10.52,0,0,1,93.05,175C85.51,175,76.18,168.26,70,157.57Z"/><path class="cls-1" d="M79.43,152.13c2.71,4.68,7.09,7.21,9.8,5.65s2.7-6.63,0-11.31-7.09-7.22-9.8-5.66-2.7,6.63,0,11.32Zm15.3-8.84c5.75,10,5.75,20.71,0,24s-15.06-2.06-20.8-12-5.75-20.72,0-24,15.06,2.06,20.8,12Z"/><path class="cls-2" d="M81.24,141.07a2.82,2.82,0,0,0-1.45.37c-2.31,1.33-2.19,6.07.27,10.33h0a13.39,13.39,0,0,0,4.63,4.9c1.62.93,3.1,1.1,4.17.49s1.67-2,1.67-3.87A14.59,14.59,0,0,0,84,141.92a5.58,5.58,0,0,0-2.72-.85ZM87.42,159A7,7,0,0,1,84,157.92a14.78,14.78,0,0,1-5.15-5.43h0c-3-5.11-2.84-10.52.26-12.31,1.54-.88,3.54-.71,5.62.49A16,16,0,0,1,92,153.29c0,2.42-.85,4.23-2.39,5.12a4.33,4.33,0,0,1-2.17.56Zm7.31-15.68h0ZM77.79,131c5.23,0,11.86,4.93,16.32,12.64h0a29.28,29.28,0,0,1,4.21,14.14c0,4.27-1.41,7.42-3.95,8.89-5.39,3.12-14.28-2.15-19.82-11.74s-5.65-19.92-.26-23a6.86,6.86,0,0,1,3.5-.9ZM73.3,155.66c-5.93-10.28-5.81-21.5.26-25s15.86,2,21.8,12.27a30.64,30.64,0,0,1,4.4,14.86c0,4.81-1.65,8.41-4.67,10.15A8.22,8.22,0,0,1,91,169C85.17,169,78,163.84,73.3,155.66Z"/><path class="cls-2" d="M118,175.8a.8.8,0,0,0,.36-.09l14.35-8.28a.74.74,0,0,0,.27-1,.71.71,0,0,0-1-.26l-14.37,8.28a.73.73,0,0,0,.37,1.35Z"/><path class="cls-2" d="M108.12,149.46a.7.7,0,0,0,.36-.1l14.35-8.28a.73.73,0,0,0,.26-1,.72.72,0,0,0-1-.26l-14.36,8.28a.73.73,0,0,0-.25,1A.69.69,0,0,0,108.12,149.46Z"/></g></svg>