<svg xmlns="http://www.w3.org/2000/svg" width="200" height="200" viewBox="0 0 200 200"><defs><style>.cls-1{fill:#b2ca80;}.cls-1,.cls-2,.cls-3,.cls-4{fill-rule:evenodd;}.cls-3{fill:#f4ffc8;}.cls-4{fill:#fff;}</style></defs><g id="Layer_3" data-name="Layer 3"><path class="cls-1" d="M141.74,64.78a1.33,1.33,0,0,1,.5-1.13L112,81.12c-.46.34-.46.6-.51,1.14V193.47c-.11,2-.42,3.41-2.1,4.59l30.29-17.48c1.69-1.18,2-2.61,2.06-4.55V64.78ZM98.86,140.47c.09-4.37.55-7.74,2.82-11.54a12.73,12.73,0,0,1,4.25-4L80.88,139.34,76.28,142a13.16,13.16,0,0,0-4.85,4.42c-2.27,3.8-2.73,7.17-2.82,11.55v9.9c-.12,2.4-.45,3.58-2.56,4.8l30.74-17.74c1.69-1.13,2-2.61,2.07-4.55v-9.9Z"/><path class="cls-2" d="M99.2,130.5,77.05,143.3a11.4,11.4,0,0,0-4.35,3.88c-2.07,3.45-2.52,6.57-2.61,10.78v9.94a4.11,4.11,0,0,1,0,.72L96,153.7c1-.71,1.35-1.47,1.44-3.33v-9.9h0a24.91,24.91,0,0,1,1.81-10ZM66.05,174.13a1.49,1.49,0,0,1-.76-2.78c1.47-.84,1.73-1.39,1.85-3.49v-9.94c.09-4.72.58-8.26,3.08-12.38a15.09,15.09,0,0,1,5.35-4.85l29.61-17.1a1.48,1.48,0,0,1,2,.5,1.56,1.56,0,0,1-.46,2.07,11.84,11.84,0,0,0-3.8,3.53c-2.06,3.46-2.48,6.62-2.56,10.83v9.94c-.09,1.9-.38,4.08-2.83,5.77L66.8,173.93h0a1.13,1.13,0,0,1-.71.2ZM140.23,66.55,113,82.26V193.55c0,.26,0,.51,0,.76l25.9-14.95c1-.72,1.31-1.43,1.4-3.33V66.55ZM108.16,198.86a1.48,1.48,0,0,1,.39-2c1-.72,1.34-1.47,1.43-3.37V82.14a3,3,0,0,1,1.26-2.32l30.24-17.48a1.54,1.54,0,0,1,2,.38,1.41,1.41,0,0,1-.25,1.94l0,111.41c-.08,1.94-.37,4.13-2.82,5.81l-30.24,17.45a1.38,1.38,0,0,1-.76.2A1.49,1.49,0,0,1,108.16,198.86Z"/><polygon class="cls-3" points="97.73 18.95 127.97 1.47 159.06 72.75 128.76 90.23 97.73 18.95"/><path class="cls-2" d="M157.11,72.11,127.25,3.62l-27.63,16,29.86,68.49,27.63-16Zm-28.8,19.51a1.5,1.5,0,0,1-.9-.81L96.33,19.54A1.45,1.45,0,0,1,97,17.69L127.21.21a1.57,1.57,0,0,1,1.22-.13,1.39,1.39,0,0,1,.89.8L160.4,72.15a1.52,1.52,0,0,1-.63,1.9L129.52,91.49a1.36,1.36,0,0,1-.76.21A1,1,0,0,1,128.31,91.62Z"/><path class="cls-4" d="M111.49,193.47c0,2.27-.8,3.83-2.1,4.59s-3,.64-5-.51L91,189.8a15.63,15.63,0,0,1-7.09-12.25V144.18a6,6,0,0,0-.51-3.36c-.67-1.23-1.8-1.86-2.47-1.48l-3.76,2.15a16.62,16.62,0,0,0-4.84,3.75c-2.49,3.07-3.67,7.33-3.67,12.72v9.9c0,4.46-3.14,6.32-7.07,4.08l-13.48-7.79a15.71,15.71,0,0,1-7-12.25v-8.39c0-8.72,1.31-16.09,4-22a29.19,29.19,0,0,1,12-13.52L82.26,93.47c.64-.38,1.6-.63,1.6-1.77V66.3a3.91,3.91,0,0,0-1.76-3L66.63,54.34,97.73,19l31,71.28-15.49-9c-1-.59-1.78-.13-1.78,1Z"/><path class="cls-2" d="M112.46,79.52A2.93,2.93,0,0,1,114,80l11.63,6.69L97.26,21.69,69,54l13.89,8a5.47,5.47,0,0,1,2.54,4.34V91.7c0,1.85-1.44,2.57-2.41,3.08L57.83,109.31a27.6,27.6,0,0,0-11.46,12.84c-2.57,5.69-3.88,12.89-3.88,21.36v8.39a14.22,14.22,0,0,0,6.33,10.94l13.48,7.79c1.39.81,2.66,1,3.49.47s1.35-1.64,1.35-3.24V158c0-5.82,1.31-10.41,4-13.65a16.85,16.85,0,0,1,5.31-4.09l3.71-2.15c1.47-.83,3.41,0,4.54,2a6.68,6.68,0,0,1,.73,3.62v33.87A14.12,14.12,0,0,0,91.7,188.5l13.48,7.79c1.35.76,2.66,1,3.5.46s1.3-1.68,1.3-3.28V82.26a2.7,2.7,0,0,1,1.26-2.44,2.5,2.5,0,0,1,1.22-.3Zm-8.81,119.34-13.46-7.79a17,17,0,0,1-7.8-13.52v-34a3.53,3.53,0,0,0-.33-2.07c-.31-.51-.63-.76-.47-.88l-3.8,2.19a14,14,0,0,0-4.38,3.37c-2.18,2.69-3.32,6.65-3.32,11.75v9.9c0,2.73-1,4.8-2.82,5.85s-4.09.89-6.45-.5l-13.47-7.8a16.94,16.94,0,0,1-7.84-13.51v-8.39c0-8.89,1.38-16.51,4.17-22.62a30.4,30.4,0,0,1,12.63-14.2L81.5,92.16l.42-.21a3,3,0,0,0,.47-.25V66.3a2.4,2.4,0,0,0-1-1.73l-15.5-9a1.4,1.4,0,0,1-.71-1.05,1.44,1.44,0,0,1,.34-1.22L96.59,18a1.62,1.62,0,0,1,1.34-.5,1.51,1.51,0,0,1,1.14.89l31.09,71.22a1.57,1.57,0,0,1-.38,1.73,1.48,1.48,0,0,1-1.73.17L113,82.81V193.47c0,2.74-1,4.8-2.82,5.86a5,5,0,0,1-2.57.67A8,8,0,0,1,103.65,198.86Z"/></g></svg>